<?xml version="1.0" encoding="utf-8"?>
<!-- Generator: Adobe Illustrator 16.0.0, SVG Export Plug-In . SVG Version: 6.00 Build 0)  -->
<!DOCTYPE svg PUBLIC "-//W3C//DTD SVG 1.1//EN" "http://www.w3.org/Graphics/SVG/1.1/DTD/svg11.dtd">
<svg version="1.1" id="Layer_1" xmlns="http://www.w3.org/2000/svg" xmlns:xlink="http://www.w3.org/1999/xlink" x="0px" y="0px"
	 width="841.89px" height="595.275px" viewBox="0 0 841.89 595.275" enable-background="new 0 0 841.89 595.275"
	 xml:space="preserve">
<rect x="214.5" y="73.5" fill-rule="evenodd" clip-rule="evenodd" fill="#FFFFFF" width="420" height="352"/>
<g>
	<path display="none" fill-rule="evenodd" clip-rule="evenodd" fill="#FFFFFF" stroke="#F3F3F3" stroke-miterlimit="10" d="
		M246.632,446.326c0,8.813,0,16.013-0.538,19.774c-0.43,2.687-0.645,4.406-2.472,4.836c-0.859,0.215-2.042,0.43-2.901,0.43
		c-0.538,0-0.752,0.43-0.752,0.752c0,0.537,0.538,0.752,1.504,0.752c1.505,0,3.761-0.107,5.696-0.215
		c1.934,0,3.654-0.107,3.869-0.107c0.43,0,3.654,0.215,7.738,0.538c4.083,0.215,9.135,0.537,13.218,0.537
		c16.12,0,24.61-6.341,28.694-10.532c5.266-5.373,10.209-14.186,10.209-25.685c0-10.854-4.514-18.484-9.242-23.213
		c-11.177-11.284-28.479-10.425-37.936-10.425c-5.588,0-11.606,0.215-12.681,0.215c-0.538,0-6.663-0.215-10.962-0.215
		c-1.075,0-1.504,0.215-1.504,0.753c0,0.322,0.43,0.752,0.752,0.752c0.859,0,2.471,0.107,3.224,0.215
		c3.117,0.43,3.654,1.935,3.869,5.051c0.215,2.902,0.215,5.481,0.215,19.667V446.326L246.632,446.326z M255.23,409.572
		c0-1.075,0.322-1.505,1.182-1.827c0.86-0.322,3.869-0.645,5.696-0.645c11.284,0,21.708,1.182,30.628,10.209
		c3.869,3.869,8.92,11.284,8.92,22.891c0,8.383-2.472,17.088-7.416,21.709c-5.696,5.373-13.433,8.274-22.138,8.274
		c-11.177,0-14.508-1.935-15.69-3.653c-0.752-0.968-0.967-4.299-1.074-6.556c-0.107-1.72-0.107-10.21-0.107-19.882V409.572z"/>
	<path display="none" fill-rule="evenodd" clip-rule="evenodd" fill="#FFFFFF" stroke="#F3F3F3" stroke-miterlimit="10" d="
		M332.606,446.326c0,8.813,0,16.013-0.537,19.774c-0.43,2.687-0.645,4.514-2.472,4.836c-0.859,0.107-2.042,0.43-2.901,0.43
		c-0.537,0-0.752,0.43-0.752,0.752c0,0.537,0.538,0.752,1.505,0.752c1.504,0,3.654-0.107,5.48-0.215
		c2.042-0.107,3.869-0.107,4.084-0.107c1.397,0,3.869,0,7.845,0.215c3.869,0.107,9.35,0.323,16.442,0.323
		c3.654,0,4.621,0,5.266-2.364c0.537-1.935,1.29-8.168,1.29-8.813c0-0.646-0.107-1.397-0.645-1.397
		c-0.537,0-0.752,0.322-0.967,1.397c-0.538,3.653-1.827,5.266-4.299,6.34c-2.472,0.968-6.986,0.968-9.458,0.968
		c-9.35,0-11.069-1.183-11.284-7.308c-0.107-1.827,0-12.467,0-15.583v-7.63c0-0.323,0.107-0.646,0.645-0.646
		c1.612,0,11.714,0.107,14.293,0.43c3.654,0.431,4.514,1.505,4.836,2.795c0.43,1.182,0.43,2.149,0.43,3.009
		c0,0.537,0.215,0.859,0.645,0.859c0.645,0,0.859-0.967,0.859-1.719c0-0.646,0.215-4.084,0.43-5.911
		c0.215-3.009,0.752-4.514,0.752-5.051s-0.215-0.752-0.538-0.752s-0.752,0.537-1.397,1.182c-0.967,0.967-2.364,1.074-4.621,1.289
		c-2.149,0.216-14.616,0.216-15.798,0.216c-0.537,0-0.537-0.323-0.537-0.968v-24.825c0-0.645,0.107-0.967,0.537-0.967
		c1.075,0,12.037,0.107,13.648,0.322c5.159,0.645,6.126,1.29,6.771,2.794c0.43,1.075,0.537,2.58,0.537,3.225
		c0,0.752,0.215,1.182,0.752,1.182c0.43,0,0.752-0.537,0.86-0.967c0.215-1.074,0.43-5.158,0.538-6.019
		c0.215-2.579,0.752-3.653,0.752-4.299c0-0.43-0.107-0.859-0.43-0.859c-0.43,0-0.86,0.322-1.29,0.43
		c-0.752,0.107-2.471,0.43-4.298,0.537c-2.149,0.107-21.923,0-22.568,0c-0.538,0-6.663-0.215-10.962-0.215
		c-1.075,0-1.504,0.215-1.504,0.753c0,0.322,0.43,0.752,0.752,0.752c0.86,0,2.472,0.107,3.224,0.215
		c3.117,0.43,3.654,1.935,3.869,5.051c0.215,2.902,0.215,5.481,0.215,19.667V446.326z"/>
	<path display="none" fill-rule="evenodd" clip-rule="evenodd" fill="#FFFFFF" stroke="#F3F3F3" stroke-miterlimit="10" d="
		M449.531,430.206c0-14.186,0-16.765,0.215-19.667c0.215-3.224,0.753-4.514,3.224-5.051c1.183-0.215,1.72-0.215,2.365-0.215
		c0.43,0,0.859-0.43,0.859-0.752c0-0.538-0.537-0.753-1.612-0.753c-2.794,0-8.813,0.215-9.35,0.215
		c-0.43,0-6.556-0.215-10.747-0.215c-1.074,0-1.504,0.215-1.504,0.753c0,0.322,0.322,0.752,0.752,0.752
		c0.859,0,2.472,0.107,3.224,0.215c3.117,0.43,3.547,1.935,3.762,5.051c0.107,2.902,0.215,5.696,0.215,19.882v1.935
		c0,0.537-0.215,0.537-0.537,0.537h-39.441c-0.322,0-0.537,0-0.537-0.537v-1.935c0-14.186,0-16.979,0.107-19.882
		c0.215-3.224,0.752-4.514,3.332-5.051c1.075-0.215,1.72-0.215,2.364-0.215c0.323,0,0.752-0.43,0.752-0.752
		c0-0.538-0.43-0.753-1.505-0.753c-2.901,0-8.919,0.215-9.349,0.215c-0.538,0-6.556-0.215-10.854-0.215
		c-1.075,0-1.504,0.215-1.504,0.753c0,0.322,0.43,0.752,0.752,0.752c0.86,0,2.472,0.107,3.224,0.215
		c3.117,0.43,3.654,1.935,3.869,5.051c0.215,2.902,0.215,5.481,0.215,19.667v16.12c0,8.813,0,16.013-0.538,19.774
		c-0.43,2.687-0.645,4.406-2.472,4.836c-0.86,0.215-2.042,0.43-2.902,0.43c-0.537,0-0.752,0.43-0.752,0.752
		c0,0.537,0.537,0.752,1.504,0.752c2.901,0,8.92-0.322,9.458-0.322c0.43,0,6.448,0.322,11.714,0.322
		c1.074,0,1.504-0.322,1.504-0.752c0-0.322-0.215-0.752-0.752-0.752c-0.859,0-2.901-0.215-4.298-0.43
		c-2.794-0.43-3.117-2.149-3.439-4.836c-0.43-3.762-0.43-10.747-0.43-19.56v-9.135c0-0.43,0.215-0.537,0.537-0.537h39.441
		c0.322,0,0.537,0.107,0.537,0.537v9.135c0,8.813,0,15.69-0.43,19.452c-0.322,2.687-0.645,4.514-2.579,4.943
		c-0.86,0.215-1.935,0.43-2.794,0.43c-0.538,0-0.753,0.43-0.753,0.752c0,0.537,0.431,0.752,1.505,0.752
		c2.794,0,8.92-0.322,9.35-0.322c0.537,0,6.556,0.322,11.714,0.322c1.075,0,1.612-0.322,1.612-0.752
		c0-0.322-0.215-0.752-0.859-0.752c-0.753,0-2.902-0.215-4.191-0.43c-2.901-0.43-3.117-2.149-3.439-4.836
		c-0.43-3.762-0.537-10.962-0.537-19.774V430.206z"/>
	<path display="none" fill-rule="evenodd" clip-rule="evenodd" fill="#FFFFFF" stroke="#F3F3F3" stroke-miterlimit="10" d="
		M483.599,417.31c2.901,3.225,13.522,14.401,24.484,25.9c9.977,10.424,23.625,23.857,24.593,24.717
		c5.266,4.836,6.251,5.589,7.218,5.589c0.646,0,0.753-0.538,0.753-6.556l0.215-53.519c0-5.481,0.215-7.309,3.331-7.953
		c1.075-0.215,1.827-0.215,2.257-0.215c0.645,0,1.075-0.537,1.075-0.859c0-0.538-0.753-0.646-1.72-0.646
		c-3.869,0-6.985,0.215-8.078,0.215c-1.075,0-5.589-0.215-9.887-0.215c-1.075,0-1.827,0.107-1.827,0.646
		c0,0.322,0.107,0.859,0.752,0.859c0.753,0,2.901,0.107,4.621,0.43c2.901,0.537,3.439,2.579,3.547,8.49l0.967,45.781
		c-2.901-3.01-13.004-13.863-22.335-23.535c-14.616-15.046-28.354-29.661-29.858-31.166c-0.968-0.967-2.579-2.794-3.654-2.794
		c-0.752,0-1.289,0.967-1.289,4.621v52.337c0,8.274-0.322,10.746-2.687,11.392c-1.397,0.43-3.117,0.537-3.869,0.537
		c-0.43,0-0.752,0.322-0.752,0.752c0,0.645,0.537,0.752,1.504,0.752c4.299,0,8.275-0.322,9.135-0.322s4.621,0.322,9.977,0.322
		c1.075,0,1.72-0.215,1.72-0.752c0-0.43-0.322-0.752-0.752-0.752c-0.86,0-3.01-0.107-4.729-0.537
		c-2.561-0.646-3.42-2.902-3.636-10.425L483.599,417.31z"/>
	<path display="none" fill-rule="evenodd" clip-rule="evenodd" fill="#FFFFFF" stroke="#F3F3F3" stroke-miterlimit="10" d="
		M568.068,446.326c0,8.813,0,16.013-0.538,19.774c-0.43,2.687-0.645,4.514-2.472,4.836c-0.859,0.107-2.042,0.43-2.901,0.43
		c-0.537,0-0.752,0.43-0.752,0.752c0,0.537,0.537,0.752,1.504,0.752c1.505,0,3.654-0.107,5.481-0.215
		c2.042-0.107,3.869-0.107,4.084-0.107c1.396,0,3.868,0,7.845,0.215c3.869,0.107,9.35,0.323,16.442,0.323
		c3.654,0,4.621,0,5.266-2.364c0.538-1.935,1.29-8.168,1.29-8.813c0-0.646-0.107-1.397-0.645-1.397s-0.753,0.322-0.968,1.397
		c-0.537,3.653-1.826,5.266-4.299,6.34c-2.472,0.968-6.985,0.968-9.457,0.968c-9.35,0-11.068-1.183-11.283-7.308
		c-0.107-1.827,0-12.467,0-15.583v-7.63c0-0.323,0.107-0.646,0.645-0.646c1.611,0,11.714,0.107,14.293,0.43
		c3.654,0.431,4.514,1.505,4.836,2.795c0.43,1.182,0.43,2.149,0.43,3.009c0,0.537,0.215,0.859,0.645,0.859
		c0.646,0,0.86-0.967,0.86-1.719c0-0.646,0.215-4.084,0.43-5.911c0.215-3.009,0.753-4.514,0.753-5.051s-0.216-0.752-0.538-0.752
		s-0.752,0.537-1.397,1.182c-0.967,0.967-2.363,1.074-4.621,1.289c-2.148,0.216-14.615,0.216-15.797,0.216
		c-0.537,0-0.537-0.323-0.537-0.968v-24.825c0-0.645,0.107-0.967,0.537-0.967c1.074,0,12.036,0.107,13.648,0.322
		c5.158,0.645,6.125,1.29,6.77,2.794c0.431,1.075,0.538,2.58,0.538,3.225c0,0.752,0.215,1.182,0.752,1.182
		c0.43,0,0.753-0.537,0.86-0.967c0.215-1.074,0.43-5.158,0.537-6.019c0.215-2.579,0.752-3.653,0.752-4.299
		c0-0.43-0.107-0.859-0.43-0.859c-0.43,0-0.859,0.322-1.29,0.43c-0.752,0.107-2.472,0.43-4.298,0.537c-2.15,0.107-21.924,0-22.568,0
		c-0.538,0-6.663-0.215-10.962-0.215c-1.075,0-1.505,0.215-1.505,0.753c0,0.322,0.43,0.752,0.753,0.752
		c0.859,0,2.471,0.107,3.224,0.215c3.116,0.43,3.653,1.935,3.869,5.051c0.215,2.902,0.215,5.481,0.215,19.667V446.326z"/>
	<g>
		<path fill-rule="evenodd" clip-rule="evenodd" fill="#FFFFFF" stroke="#F3F3F3" stroke-miterlimit="10" d="M509.072,161.71
			c7.919,3.302,16.443,8.082,21.953,14.871c6.697,8.251,6.896,16.358,24.341,23.62c-3.479,3.942-2.598,5.805,1.482,7.721
			c-0.937,1.855-1.555,5.364-3.088,6.126c-2.64,1.313-7.716-0.694-11.508-3.124c0.472,1.754,3.847,3.499,10.123,5.233
			c-13.902,10.409-36.109-3.188-52.251,21.353c17.33-14.799,24.772-11.293,40.619-13.957c8.711-1.464,13.084-1.829,17.051-9.736
			c6.704-13.357,3.732-15.049-0.182-16.043C532.164,191.313,542.599,164.101,509.072,161.71z"/>
		<path fill-rule="evenodd" clip-rule="evenodd" fill="#FFFFFF" stroke="#F3F3F3" stroke-miterlimit="10" d="M508.182,166.189
			c-0.671-33.007-22.707-13.57-14.063,1.073c1.149-10.603,3.242-15.306,5.686-15.595
			C504.328,151.133,505.901,163.067,508.182,166.189z"/>
		<path fill-rule="evenodd" clip-rule="evenodd" fill="#FFFFFF" stroke="#F3F3F3" stroke-miterlimit="10" d="M565.051,302.472
			c-1.017,2.313-0.848,4.976,0.455,7.141c-0.158,0.771-0.763,1.371-1.535,1.524c-0.771,0.152-1.56-0.173-2-0.824
			C560.846,307.295,562.174,303.915,565.051,302.472z"/>
		<path fill-rule="evenodd" clip-rule="evenodd" fill="#FFFFFF" stroke="#F3F3F3" stroke-miterlimit="10" d="M569.342,304.47
			c-1.017,2.313-0.848,4.976,0.455,7.141c-0.158,0.771-0.764,1.371-1.535,1.524c-0.771,0.152-1.561-0.172-2-0.824
			C565.136,309.294,566.464,305.913,569.342,304.47z"/>
		<path fill-rule="evenodd" clip-rule="evenodd" fill="#FFFFFF" stroke="#F3F3F3" stroke-miterlimit="10" d="M573.166,310.479
			c-1.017,2.313-0.847,4.976,0.455,7.141c-0.158,0.771-0.763,1.371-1.535,1.524c-0.771,0.152-1.56-0.172-2-0.825
			C568.961,315.303,570.288,311.923,573.166,310.479z"/>
		<path fill-rule="evenodd" clip-rule="evenodd" fill="#FFFFFF" stroke="#F3F3F3" stroke-miterlimit="10" d="M514.475,176.889
			c1.856,0.372,3.632,0.954,5.327,1.744c-0.741,0.321-1.473,0.978-2,1.874c-0.998,1.701-0.88,3.625,0.264,4.296
			c1.145,0.671,2.881-0.164,3.88-1.865c0.551-0.938,0.762-1.944,0.649-2.77c1.327,0.849,2.601,1.84,3.817,2.975
			C523.828,177.894,519.849,175.809,514.475,176.889z"/>
		<path fill-rule="evenodd" clip-rule="evenodd" fill="#FFFFFF" stroke="#F3F3F3" stroke-miterlimit="10" d="M511.083,122.692
			c-2.308,0.191-4.379,1.49-5.555,3.485c-0.689,0.209-1.438-0.016-1.898-0.571c-0.46-0.555-0.543-1.332-0.209-1.971
			C505.359,121.41,508.663,121.004,511.083,122.692z"/>
		<path fill-rule="evenodd" clip-rule="evenodd" fill="#FFFFFF" stroke="#F3F3F3" stroke-miterlimit="10" d="M512.057,127.952
			c-2.308,0.191-4.378,1.49-5.554,3.485c-0.69,0.209-1.438-0.016-1.898-0.57c-0.461-0.556-0.543-1.332-0.209-1.972
			C506.334,126.67,509.637,126.264,512.057,127.952z"/>
		<path fill-rule="evenodd" clip-rule="evenodd" fill="#FFFFFF" stroke="#F3F3F3" stroke-miterlimit="10" d="M513.18,133.435
			c-2.308,0.19-4.378,1.49-5.555,3.484c-0.689,0.209-1.438-0.016-1.897-0.571s-0.543-1.332-0.21-1.971
			C507.457,132.153,510.76,131.747,513.18,133.435z"/>
		<path fill-rule="evenodd" clip-rule="evenodd" fill="#FFFFFF" stroke="#F3F3F3" stroke-miterlimit="10" d="M259.887,350.134
			c-1.494,9.686,11.394,12.743,21.402,10.067c25.559-6.836,41.026-16.457,67.306-6.21c19.812,7.725,34.397,4.916,55.863,3.364
			c-22.305,5.687-36.784,8.396-58.544,0.996c-23.036-7.834-42.355,1.131-64.706,5.749
			C263.357,367.789,254.669,358.373,259.887,350.134z"/>
		<path fill-rule="evenodd" clip-rule="evenodd" fill="#FFFFFF" stroke="#F3F3F3" stroke-miterlimit="10" d="M498.72,125.601
			c-24.387,0.211-79.474,73.58-87.175,96.391C411.732,191.752,475.615,120.947,498.72,125.601z"/>
		<path fill-rule="evenodd" clip-rule="evenodd" fill="#FFFFFF" stroke="#F3F3F3" stroke-miterlimit="10" d="M578.457,323.619
			c5.951,59.244-32.375,41.323-72.626,33.816c-21.188-3.952-34.798-1.705-47.313,0.845c-25.267,5.147-48.906,7.261-69.663-11.772
			c-12.542-11.501-19.26-29.17-10.688-52.186c-5.032,19.35,1.997,38.014,15.706,49.954c18.621,16.218,39.754,14.608,62.038,9.453
			c14.98-3.466,24.919-7.113,51.005-1.732c39.931,8.235,72.165,26.646,68.537-28.092c-1.165-17.588-13.556-20.772-19.348,4.508
			C557.192,303.288,576.123,300.387,578.457,323.619z"/>
		<path fill-rule="evenodd" clip-rule="evenodd" fill="#FFFFFF" stroke="#F3F3F3" stroke-miterlimit="10" d="M467.096,300.825
			c19.63,13.552,64.822,44.368,88.633,29.551c-17.268,20.943-76.131-13.234-92.764-26.477c-12.287-9.783-20.58-15.319-43.622-16.139
			C439.902,283.793,450.175,289.144,467.096,300.825z"/>
		<path fill-rule="evenodd" clip-rule="evenodd" fill="#FFFFFF" stroke="#F3F3F3" stroke-miterlimit="10" d="M457.039,292.398
			c27.934-13.056,26.434-27.905,39.773-50.688C492.461,261.74,484.483,290.344,457.039,292.398z"/>
		<path fill-rule="evenodd" clip-rule="evenodd" fill="#FFFFFF" stroke="#F3F3F3" stroke-miterlimit="10" d="M491.854,254.695
			c17.971,5.363,56.986,37.645,71.267,48.679C543.716,295.896,507.791,268.53,491.854,254.695z"/>
		<path fill-rule="evenodd" clip-rule="evenodd" fill="#FFFFFF" stroke="#F3F3F3" stroke-miterlimit="10" d="M521.342,227.188
			c18.508,27.249,60.173,49.863,62.104,81.318c0.311,5.054-0.426,10.074-4.191,13.829c1.583-5.348,2.057-9.403,1.464-13.614
			C576.147,276.25,528.58,255.087,521.342,227.188z"/>
		<path fill-rule="evenodd" clip-rule="evenodd" fill="#FFFFFF" stroke="#F3F3F3" stroke-miterlimit="10" d="M291.964,321.124
			c8.347-1.717,6.596,6.887,14.719,5.541c15.43-2.556,45.686-38.731,59.661-32.232c-21.119,3.555-44.861,41.029-62.366,38.274
			c-8.777-1.382-6.673-8.969-13.274-5.822c-10.615,5.06-17.906,16.146-29.795,21.252
			C268.807,340.994,283.951,322.773,291.964,321.124z"/>
		<path fill-rule="evenodd" clip-rule="evenodd" fill="#FFFFFF" stroke="#F3F3F3" stroke-miterlimit="10" d="M372.823,280.114
			c-33.136,18.374,8.44-0.222,5.516,12.186c-1.36-3.296-8.644-1.718-14.351-1.068c-9.854,1.121-8.646-3.903-3.201-8.121
			c3.821-2.96,9.44-5.291,12.125-7.089c9.871-6.609,15.936-13.149,20.142-19.845c11.625-18.508,10.79-35.822,33.434-63.868
			c-14.559,23.935-18.476,46.49-30.529,66.448C391.104,266.795,384.243,273.781,372.823,280.114z"/>
		<path fill-rule="evenodd" clip-rule="evenodd" fill="#FFFFFF" stroke="#F3F3F3" stroke-miterlimit="10" d="M496.826,147.868
			c-38.864,34.503-20.313,61.421-49.456,82.09c27.238-33.742,3.425-51.202,47.934-84.16c3.316-2.457,8.372-5.114,10.012-8.677
			c1.758-3.814,1.582-8.088-0.614-12.458c3.197,1.187,5.529,9.047,1.974,14.295C504.758,141.787,499.248,145.717,496.826,147.868z"
			/>
	</g>
</g>
</svg>
