<?xml version="1.0" encoding="utf-8"?>
<!-- Generator: Adobe Illustrator 16.0.0, SVG Export Plug-In . SVG Version: 6.00 Build 0)  -->
<!DOCTYPE svg PUBLIC "-//W3C//DTD SVG 1.1//EN" "http://www.w3.org/Graphics/SVG/1.1/DTD/svg11.dtd">
<svg version="1.1" id="Layer_1" xmlns="http://www.w3.org/2000/svg" xmlns:xlink="http://www.w3.org/1999/xlink" x="0px" y="0px"
	 width="941.89px" height="795.275px" viewBox="0 0 841.89 595.275" enable-background="new 0 0 841.89 595.275"
	 xml:space="preserve">
<rect x="-610.283" y="6.542" fill-rule="evenodd" clip-rule="evenodd" fill="#FFFFFF" width="565.5" height="565.501"/>
<g>
	<path display="none" fill-rule="evenodd" clip-rule="evenodd" d="M400.606,369.711c0,8.813,0,16.013-0.538,19.774
		c-0.43,2.687-0.645,4.406-2.472,4.836c-0.859,0.215-2.042,0.43-2.901,0.43c-0.538,0-0.752,0.43-0.752,0.752
		c0,0.537,0.538,0.752,1.504,0.752c1.505,0,3.761-0.107,5.696-0.215c1.934,0,3.654-0.107,3.869-0.107
		c0.43,0,3.654,0.215,7.738,0.538c4.083,0.215,9.135,0.537,13.219,0.537c16.119,0,24.609-6.341,28.693-10.532
		c5.266-5.373,10.209-14.186,10.209-25.685c0-10.854-4.514-18.484-9.242-23.213c-11.176-11.284-28.479-10.425-37.936-10.425
		c-5.588,0-11.606,0.215-12.681,0.215c-0.538,0-6.663-0.215-10.962-0.215c-1.075,0-1.504,0.215-1.504,0.753
		c0,0.322,0.43,0.752,0.752,0.752c0.859,0,2.471,0.107,3.224,0.215c3.117,0.43,3.654,1.935,3.869,5.051
		c0.215,2.902,0.215,5.481,0.215,19.667V369.711L400.606,369.711z M409.204,332.957c0-1.075,0.322-1.505,1.182-1.827
		c0.86-0.322,3.869-0.645,5.696-0.645c11.284,0,21.708,1.182,30.628,10.209c3.869,3.869,8.92,11.284,8.92,22.891
		c0,8.383-2.471,17.088-7.415,21.709c-5.696,5.373-13.433,8.274-22.138,8.274c-11.177,0-14.509-1.935-15.691-3.653
		c-0.752-0.968-0.967-4.299-1.074-6.556c-0.107-1.72-0.107-10.21-0.107-19.882V332.957z"/>
	<path display="none" fill-rule="evenodd" clip-rule="evenodd" d="M480.115,369.657c0,8.813,0,16.013-0.537,19.774
		c-0.43,2.687-0.645,4.514-2.473,4.836c-0.859,0.107-2.041,0.43-2.9,0.43c-0.537,0-0.753,0.43-0.753,0.752
		c0,0.537,0.538,0.752,1.505,0.752c1.504,0,3.654-0.107,5.48-0.215c2.042-0.107,3.869-0.107,4.084-0.107
		c1.396,0,3.869,0,7.846,0.215c3.868,0.107,9.35,0.323,16.441,0.323c3.654,0,4.621,0,5.267-2.364c0.537-1.935,1.29-8.168,1.29-8.813
		c0-0.646-0.107-1.397-0.646-1.397c-0.537,0-0.753,0.322-0.967,1.397c-0.538,3.653-1.827,5.266-4.299,6.34
		c-2.472,0.968-6.985,0.968-9.458,0.968c-9.35,0-11.068-1.183-11.283-7.308c-0.107-1.827,0-12.467,0-15.583v-7.63
		c0-0.323,0.107-0.646,0.645-0.646c1.612,0,11.715,0.107,14.293,0.43c3.654,0.431,4.514,1.505,4.836,2.795
		c0.431,1.182,0.431,2.149,0.431,3.009c0,0.537,0.215,0.859,0.645,0.859c0.645,0,0.859-0.967,0.859-1.719
		c0-0.646,0.216-4.084,0.431-5.911c0.215-3.009,0.752-4.514,0.752-5.051s-0.215-0.752-0.537-0.752s-0.753,0.537-1.397,1.182
		c-0.968,0.967-2.364,1.074-4.621,1.289c-2.149,0.216-14.616,0.216-15.798,0.216c-0.537,0-0.537-0.323-0.537-0.968v-24.825
		c0-0.645,0.107-0.967,0.537-0.967c1.074,0,12.037,0.107,13.648,0.322c5.158,0.645,6.126,1.29,6.771,2.794
		c0.43,1.075,0.537,2.58,0.537,3.225c0,0.752,0.215,1.182,0.753,1.182c0.43,0,0.752-0.537,0.859-0.967
		c0.215-1.074,0.43-5.158,0.537-6.019c0.215-2.579,0.752-3.653,0.752-4.299c0-0.43-0.107-0.859-0.43-0.859
		c-0.43,0-0.859,0.322-1.289,0.43c-0.752,0.107-2.472,0.43-4.299,0.537c-2.149,0.107-21.924,0-22.568,0
		c-0.537,0-6.663-0.215-10.962-0.215c-1.075,0-1.505,0.215-1.505,0.753c0,0.322,0.43,0.752,0.753,0.752
		c0.86,0,2.472,0.107,3.224,0.215c3.117,0.43,3.654,1.935,3.869,5.051c0.215,2.902,0.215,5.481,0.215,19.667V369.657z"/>
	<path display="none" fill-rule="evenodd" clip-rule="evenodd" d="M592.4,353.591c0-14.186,0-16.765,0.215-19.667
		c0.215-3.224,0.752-4.514,3.223-5.051c1.184-0.215,1.721-0.215,2.365-0.215c0.43,0,0.859-0.43,0.859-0.752
		c0-0.538-0.537-0.753-1.611-0.753c-2.795,0-8.813,0.215-9.35,0.215c-0.43,0-6.557-0.215-10.748-0.215
		c-1.074,0-1.504,0.215-1.504,0.753c0,0.322,0.322,0.752,0.752,0.752c0.859,0,2.473,0.107,3.225,0.215
		c3.117,0.43,3.547,1.935,3.762,5.051c0.107,2.902,0.215,5.696,0.215,19.882v1.935c0,0.537-0.215,0.537-0.537,0.537h-39.441
		c-0.322,0-0.537,0-0.537-0.537v-1.935c0-14.186,0-16.979,0.107-19.882c0.215-3.224,0.752-4.514,3.332-5.051
		c1.074-0.215,1.719-0.215,2.363-0.215c0.323,0,0.753-0.43,0.753-0.752c0-0.538-0.43-0.753-1.505-0.753
		c-2.901,0-8.92,0.215-9.35,0.215c-0.537,0-6.556-0.215-10.854-0.215c-1.075,0-1.505,0.215-1.505,0.753
		c0,0.322,0.43,0.752,0.752,0.752c0.86,0,2.472,0.107,3.224,0.215c3.117,0.43,3.654,1.935,3.869,5.051
		c0.215,2.902,0.215,5.481,0.215,19.667v16.12c0,8.813,0,16.013-0.537,19.774c-0.43,2.687-0.645,4.406-2.472,4.836
		c-0.86,0.215-2.042,0.43-2.901,0.43c-0.537,0-0.752,0.43-0.752,0.752c0,0.537,0.537,0.752,1.504,0.752
		c2.901,0,8.92-0.322,9.457-0.322c0.43,0,6.448,0.322,11.715,0.322c1.074,0,1.504-0.322,1.504-0.752
		c0-0.322-0.215-0.752-0.752-0.752c-0.859,0-2.902-0.215-4.299-0.43c-2.795-0.43-3.117-2.149-3.439-4.836
		c-0.43-3.762-0.43-10.747-0.43-19.56v-9.135c0-0.43,0.215-0.537,0.537-0.537h39.441c0.322,0,0.537,0.107,0.537,0.537v9.135
		c0,8.813,0,15.69-0.43,19.452c-0.322,2.687-0.645,4.514-2.58,4.943c-0.859,0.215-1.934,0.43-2.793,0.43
		c-0.539,0-0.754,0.43-0.754,0.752c0,0.537,0.432,0.752,1.506,0.752c2.793,0,8.92-0.322,9.35-0.322
		c0.537,0,6.555,0.322,11.713,0.322c1.076,0,1.613-0.322,1.613-0.752c0-0.322-0.215-0.752-0.859-0.752
		c-0.754,0-2.902-0.215-4.191-0.43c-2.902-0.43-3.117-2.149-3.439-4.836c-0.43-3.762-0.537-10.962-0.537-19.774V353.591z"/>
	<path display="none" fill-rule="evenodd" clip-rule="evenodd" d="M619.06,340.694c2.901,3.225,13.522,14.401,24.484,25.9
		c9.977,10.424,23.625,23.857,24.593,24.717c5.266,4.836,6.251,5.589,7.218,5.589c0.646,0,0.753-0.538,0.753-6.556l0.215-53.519
		c0-5.481,0.215-7.309,3.331-7.953c1.075-0.215,1.827-0.215,2.257-0.215c0.645,0,1.075-0.537,1.075-0.859
		c0-0.538-0.753-0.646-1.72-0.646c-3.869,0-6.985,0.215-8.078,0.215c-1.075,0-5.589-0.215-9.887-0.215
		c-1.075,0-1.827,0.107-1.827,0.646c0,0.322,0.107,0.859,0.752,0.859c0.753,0,2.901,0.107,4.621,0.43
		c2.901,0.537,3.439,2.579,3.547,8.49l0.967,45.781c-2.901-3.01-13.004-13.863-22.335-23.535
		c-14.616-15.046-28.354-29.661-29.858-31.166c-0.968-0.967-2.579-2.794-3.654-2.794c-0.752,0-1.289,0.967-1.289,4.621v52.337
		c0,8.274-0.322,10.746-2.687,11.392c-1.397,0.43-3.117,0.537-3.869,0.537c-0.43,0-0.752,0.322-0.752,0.752
		c0,0.645,0.537,0.752,1.504,0.752c4.299,0,8.275-0.322,9.135-0.322s4.621,0.322,9.977,0.322c1.075,0,1.72-0.215,1.72-0.752
		c0-0.43-0.322-0.752-0.752-0.752c-0.86,0-3.01-0.107-4.729-0.537c-2.561-0.646-3.42-2.902-3.636-10.425L619.06,340.694z"/>
	<path display="none" fill-rule="evenodd" clip-rule="evenodd" d="M699.438,370.348c0,8.813,0,16.013-0.538,19.774
		c-0.43,2.687-0.645,4.514-2.472,4.836c-0.859,0.107-2.042,0.43-2.901,0.43c-0.537,0-0.752,0.43-0.752,0.752
		c0,0.537,0.537,0.752,1.504,0.752c1.505,0,3.654-0.107,5.481-0.215c2.042-0.107,3.869-0.107,4.084-0.107
		c1.396,0,3.868,0,7.845,0.215c3.869,0.107,9.35,0.323,16.442,0.323c3.654,0,4.621,0,5.266-2.364c0.538-1.935,1.29-8.168,1.29-8.813
		c0-0.646-0.107-1.397-0.645-1.397s-0.753,0.322-0.968,1.397c-0.537,3.653-1.826,5.266-4.299,6.34
		c-2.472,0.968-6.985,0.968-9.457,0.968c-9.35,0-11.068-1.183-11.283-7.308c-0.107-1.827,0-12.467,0-15.583v-7.63
		c0-0.323,0.107-0.646,0.645-0.646c1.611,0,11.714,0.107,14.293,0.43c3.654,0.431,4.514,1.505,4.836,2.795
		c0.43,1.182,0.43,2.149,0.43,3.009c0,0.537,0.215,0.859,0.645,0.859c0.646,0,0.86-0.967,0.86-1.719c0-0.646,0.215-4.084,0.43-5.911
		c0.215-3.009,0.753-4.514,0.753-5.051s-0.216-0.752-0.538-0.752s-0.752,0.537-1.397,1.182c-0.967,0.967-2.363,1.074-4.621,1.289
		c-2.148,0.216-14.615,0.216-15.797,0.216c-0.537,0-0.537-0.323-0.537-0.968v-24.825c0-0.645,0.107-0.967,0.537-0.967
		c1.074,0,12.036,0.107,13.648,0.322c5.158,0.645,6.125,1.29,6.77,2.794c0.431,1.075,0.538,2.58,0.538,3.225
		c0,0.752,0.215,1.182,0.752,1.182c0.43,0,0.753-0.537,0.86-0.967c0.215-1.074,0.43-5.158,0.537-6.019
		c0.215-2.579,0.752-3.653,0.752-4.299c0-0.43-0.107-0.859-0.43-0.859c-0.43,0-0.859,0.322-1.29,0.43
		c-0.752,0.107-2.472,0.43-4.298,0.537c-2.15,0.107-21.924,0-22.568,0c-0.538,0-6.663-0.215-10.962-0.215
		c-1.075,0-1.505,0.215-1.505,0.753c0,0.322,0.43,0.752,0.753,0.752c0.859,0,2.471,0.107,3.224,0.215
		c3.116,0.43,3.653,1.935,3.869,5.051c0.215,2.902,0.215,5.481,0.215,19.667V370.348z"/>
	<g>
		<path fill-rule="evenodd" clip-rule="evenodd" fill="#FFFFFF" d="M481.969,189.2c7.918,3.302,16.443,8.082,21.953,14.871
			c6.697,8.251,6.896,16.358,24.34,23.62c-3.479,3.942-2.598,5.805,1.482,7.721c-0.936,1.855-1.555,5.364-3.088,6.126
			c-2.639,1.313-7.715-0.694-11.508-3.124c0.473,1.754,3.848,3.499,10.123,5.233c-13.902,10.409-36.109-3.188-52.25,21.353
			c17.33-14.799,24.771-11.293,40.619-13.957c8.711-1.464,13.084-1.829,17.051-9.736c6.703-13.357,3.732-15.049-0.182-16.043
			C505.061,218.803,515.494,191.59,481.969,189.2z"/>
		<path fill-rule="evenodd" clip-rule="evenodd" fill="#FFFFFF" d="M481.078,193.679c-0.672-33.007-22.707-13.57-14.064,1.073
			c1.15-10.603,3.242-15.306,5.686-15.595C477.225,178.623,478.797,190.557,481.078,193.679z"/>
		<path fill-rule="evenodd" clip-rule="evenodd" fill="#FFFFFF" d="M537.947,329.961c-1.018,2.313-0.848,4.977,0.455,7.141
			c-0.158,0.771-0.764,1.371-1.535,1.525c-0.771,0.152-1.561-0.174-2-0.824C533.742,334.785,535.07,331.404,537.947,329.961z"/>
		<path fill-rule="evenodd" clip-rule="evenodd" fill="#FFFFFF" d="M542.238,331.959c-1.018,2.313-0.848,4.977,0.455,7.141
			c-0.158,0.771-0.764,1.371-1.535,1.525c-0.771,0.152-1.561-0.172-2-0.824C538.031,336.783,539.359,333.402,542.238,331.959z"/>
		<path fill-rule="evenodd" clip-rule="evenodd" fill="#FFFFFF" d="M546.063,337.969c-1.018,2.313-0.848,4.975,0.455,7.141
			c-0.158,0.77-0.764,1.371-1.535,1.523s-1.561-0.172-2-0.824C541.857,342.793,543.184,339.412,546.063,337.969z"/>
		<path fill-rule="evenodd" clip-rule="evenodd" fill="#FFFFFF" d="M487.371,204.379c1.855,0.372,3.631,0.954,5.326,1.744
			c-0.74,0.321-1.473,0.978-2,1.874c-0.998,1.701-0.879,3.625,0.264,4.296c1.145,0.671,2.881-0.164,3.881-1.865
			c0.551-0.938,0.762-1.944,0.648-2.77c1.328,0.849,2.602,1.84,3.818,2.975C496.725,205.383,492.744,203.299,487.371,204.379z"/>
		<path fill-rule="evenodd" clip-rule="evenodd" fill="#FFFFFF" d="M483.979,150.182c-2.307,0.191-4.379,1.49-5.555,3.485
			c-0.689,0.209-1.438-0.016-1.898-0.571c-0.459-0.555-0.543-1.332-0.209-1.971C478.256,148.9,481.559,148.494,483.979,150.182z"/>
		<path fill-rule="evenodd" clip-rule="evenodd" fill="#FFFFFF" d="M484.953,155.441c-2.309,0.191-4.379,1.49-5.555,3.485
			c-0.689,0.209-1.438-0.016-1.898-0.57c-0.461-0.556-0.543-1.332-0.209-1.972C479.23,154.16,482.533,153.754,484.953,155.441z"/>
		<path fill-rule="evenodd" clip-rule="evenodd" fill="#FFFFFF" d="M486.076,160.924c-2.309,0.19-4.379,1.49-5.555,3.484
			c-0.689,0.209-1.438-0.016-1.898-0.571c-0.459-0.555-0.543-1.332-0.209-1.971C480.354,159.643,483.656,159.236,486.076,160.924z"
			/>
		<path fill-rule="evenodd" clip-rule="evenodd" fill="#FFFFFF" d="M232.783,377.623c-1.494,9.686,11.395,12.744,21.402,10.068
			c25.559-6.836,41.025-16.457,67.307-6.211c19.812,7.725,34.396,4.916,55.863,3.365c-22.305,5.686-36.785,8.396-58.545,0.996
			c-23.035-7.834-42.354,1.131-64.705,5.748C236.253,395.279,227.565,385.863,232.783,377.623z"/>
		<path fill-rule="evenodd" clip-rule="evenodd" fill="#FFFFFF" d="M471.615,153.091c-24.387,0.211-79.473,73.58-87.174,96.391
			C384.628,219.242,448.512,148.437,471.615,153.091z"/>
		<path fill-rule="evenodd" clip-rule="evenodd" fill="#FFFFFF" d="M551.354,351.109c5.951,59.244-32.375,41.322-72.627,33.816
			c-21.188-3.953-34.797-1.705-47.313,0.844c-25.266,5.148-48.905,7.262-69.663-11.771c-12.542-11.502-19.26-29.17-10.688-52.186
			c-5.032,19.35,1.996,38.014,15.705,49.953c18.621,16.219,39.755,14.609,62.038,9.453c14.98-3.465,24.92-7.113,51.006-1.732
			c39.93,8.236,72.164,26.646,68.537-28.092c-1.166-17.588-13.557-20.771-19.348,4.508
			C530.088,330.777,549.02,327.877,551.354,351.109z"/>
		<path fill-rule="evenodd" clip-rule="evenodd" fill="#FFFFFF" d="M439.992,328.314c19.629,13.553,64.822,44.369,88.633,29.551
			c-17.268,20.943-76.131-13.234-92.764-26.477c-12.287-9.782-20.581-15.318-43.622-16.139
			C412.798,311.283,423.07,316.633,439.992,328.314z"/>
		<path fill-rule="evenodd" clip-rule="evenodd" fill="#FFFFFF" d="M429.936,319.888c27.934-13.056,26.434-27.905,39.773-50.688
			C465.357,289.23,457.379,317.834,429.936,319.888z"/>
		<path fill-rule="evenodd" clip-rule="evenodd" fill="#FFFFFF" d="M464.75,282.185c17.971,5.363,56.986,37.646,71.268,48.679
			C516.611,323.385,480.688,296.02,464.75,282.185z"/>
		<path fill-rule="evenodd" clip-rule="evenodd" fill="#FFFFFF" d="M494.238,254.678c18.508,27.249,60.172,49.863,62.104,81.318
			c0.311,5.055-0.426,10.074-4.191,13.83c1.584-5.348,2.057-9.404,1.465-13.615C549.043,303.74,501.477,282.577,494.238,254.678z"/>
		<path fill-rule="evenodd" clip-rule="evenodd" fill="#FFFFFF" d="M264.861,348.613c8.347-1.717,6.596,6.887,14.719,5.541
			c15.43-2.555,45.686-38.73,59.66-32.231c-21.119,3.556-44.861,41.028-62.365,38.274c-8.777-1.383-6.674-8.969-13.275-5.822
			c-10.614,5.059-17.906,16.146-29.795,21.252C241.703,368.484,256.847,350.264,264.861,348.613z"/>
		<path fill-rule="evenodd" clip-rule="evenodd" fill="#FFFFFF" d="M345.718,307.604c-33.135,18.373,8.441-0.222,5.517,12.186
			c-1.36-3.296-8.644-1.718-14.351-1.068c-9.854,1.121-8.646-3.902-3.201-8.12c3.821-2.96,9.44-5.29,12.125-7.089
			c9.871-6.609,15.937-13.149,20.143-19.845c11.625-18.508,10.789-35.822,33.434-63.868c-14.559,23.935-18.477,46.49-30.529,66.448
			C364,294.285,357.138,301.271,345.718,307.604z"/>
		<path fill-rule="evenodd" clip-rule="evenodd" fill="#FFFFFF" d="M469.723,175.358c-38.865,34.503-20.314,61.421-49.457,82.09
			c27.238-33.742,3.425-51.202,47.933-84.16c3.316-2.457,8.373-5.114,10.012-8.677c1.758-3.814,1.582-8.088-0.613-12.458
			c3.197,1.187,5.529,9.047,1.973,14.295C477.654,169.276,472.145,173.207,469.723,175.358z"/>
	</g>
</g>
</svg>
