<?xml version="1.0" standalone="no"?>
<!DOCTYPE svg PUBLIC "-//W3C//DTD SVG 20010904//EN"
 "http://www.w3.org/TR/2001/REC-SVG-20010904/DTD/svg10.dtd">
<svg version="1.0" xmlns="http://www.w3.org/2000/svg"
 width="210.000000pt" height="210.000000pt" viewBox="0 0 2000.000000 2000.000000"
 preserveAspectRatio="xMidYMid meet">
<metadata>
Created by potrace 1.10, written by Peter Selinger 2001-2011
</metadata>
<g transform="translate(0.000000,2000.000000) scale(0.100000,-0.100000)"
fill="#000000" stroke="none">
<path d="M2303 19604 c-69 -34 -177 -150 -214 -228 -46 -100 -62 -221 -56
-431 10 -303 58 -457 309 -995 116 -246 201 -454 234 -565 37 -128 137 -414
190 -548 31 -78 80 -209 109 -292 46 -134 157 -366 207 -436 10 -13 59 -85
109 -159 104 -153 340 -471 543 -729 l136 -174 -62 -66 c-137 -144 -224 -244
-243 -279 -11 -21 -30 -51 -42 -67 -12 -17 -33 -57 -47 -88 -14 -31 -29 -57
-34 -57 -10 0 -53 -92 -57 -120 -6 -42 -18 -79 -26 -75 -14 9 -29 -69 -33
-178 -2 -57 -9 -114 -15 -125 -16 -29 -14 -163 4 -252 22 -116 48 -354 51
-473 1 -59 7 -113 12 -120 12 -15 -6 -145 -37 -262 -24 -95 -77 -253 -89 -269
-16 -20 -79 -241 -97 -336 -4 -19 -12 -48 -20 -65 -17 -40 -30 -159 -16 -150
8 4 11 -45 11 -158 0 -189 16 -303 60 -415 l29 -75 -62 -61 c-136 -133 -261
-275 -257 -291 1 -3 -13 -32 -32 -63 -38 -66 -51 -104 -39 -112 5 -3 5 -24 -1
-50 -5 -25 -13 -79 -18 -122 -7 -68 -41 -178 -86 -275 -16 -36 -19 -113 -3
-113 16 0 6 -113 -19 -204 -19 -67 -22 -106 -22 -250 0 -93 -5 -221 -11 -284
-8 -86 -8 -160 0 -291 18 -276 33 -425 42 -435 12 -14 11 -136 -1 -136 -5 0
-10 -22 -10 -50 0 -27 5 -50 10 -50 6 0 10 -53 10 -137 0 -202 24 -341 77
-453 25 -54 25 -60 25 -255 -1 -186 11 -310 28 -300 4 3 13 -16 21 -42 8 -30
30 -66 61 -100 47 -52 55 -74 48 -136 -2 -22 27 -114 46 -144 8 -12 25 -60 38
-107 24 -81 60 -165 76 -176 4 -3 37 -63 74 -134 36 -72 70 -132 74 -135 4 -4
19 -24 32 -46 12 -22 46 -64 74 -92 39 -41 57 -53 81 -53 26 0 33 -6 52 -47
31 -68 122 -182 234 -296 l97 -97 68 0 69 0 58 -64 c31 -36 57 -68 57 -71 0
-4 83 -88 185 -188 198 -194 244 -226 331 -227 41 0 41 0 131 -128 49 -70 96
-138 105 -152 17 -27 33 -45 241 -258 l139 -142 77 0 c47 0 82 -5 89 -12 15
-15 16 -254 1 -318 -6 -25 -13 -92 -15 -150 -7 -194 -109 -693 -168 -825 -13
-27 -29 -68 -36 -90 -37 -114 -217 -512 -270 -595 -15 -25 -56 -108 -90 -185
-95 -217 -175 -372 -220 -431 -15 -20 -80 -69 -80 -61 0 6 -144 -39 -169 -52
-9 -5 -68 -21 -131 -35 -139 -31 -304 -108 -464 -217 -60 -41 -118 -79 -130
-86 -11 -6 -68 -61 -127 -122 -139 -143 -159 -182 -159 -307 0 -51 -5 -104
-11 -118 -7 -15 -9 -43 -4 -72 6 -43 16 -58 83 -127 l77 -79 165 3 c154 2 167
1 200 -19 33 -21 47 -22 235 -22 242 0 276 7 604 115 127 41 236 73 241 70 5
-3 36 1 69 10 93 24 91 25 91 -56 0 -44 4 -68 10 -64 5 3 10 -3 10 -13 0 -30
153 -169 193 -175 62 -9 314 -2 328 10 29 24 55 18 104 -24 54 -46 117 -67
172 -57 26 5 34 4 29 -5 -5 -8 17 -11 78 -11 47 0 86 4 86 9 0 4 55 11 123 14
67 3 151 13 186 22 l63 15 39 -34 c21 -19 57 -40 81 -47 60 -16 325 -6 402 15
32 9 73 18 90 21 29 3 211 68 281 99 17 8 84 24 150 36 164 29 209 40 215 49
3 5 20 16 38 25 37 19 212 173 212 187 0 5 11 26 24 47 14 20 37 67 52 105
l28 67 220 1 c122 0 262 4 311 8 50 5 91 5 93 1 3 -9 105 0 112 10 3 4 14 9
25 12 20 5 20 0 20 -211 0 -206 1 -218 23 -262 37 -75 144 -191 224 -245 40
-27 75 -52 78 -56 9 -11 100 -48 119 -48 9 0 44 -10 76 -22 46 -16 80 -21 142
-19 47 1 84 -3 88 -9 3 -5 42 -10 86 -10 51 0 78 4 74 10 -4 6 29 10 92 10 54
0 136 5 181 10 45 6 104 13 130 15 66 7 266 48 272 56 3 4 52 21 110 38 58 17
146 44 195 61 206 71 425 94 695 71 356 -29 589 -40 745 -32 178 9 525 -3 554
-19 20 -10 71 -11 424 -10 149 1 217 -2 217 -9 0 -6 7 -11 15 -11 8 0 15 5 15
10 0 6 38 10 95 10 57 0 95 -4 95 -10 0 -5 25 -10 55 -10 34 0 55 4 55 11 0 8
33 9 115 4 89 -5 131 -3 183 8 37 9 114 21 172 28 199 23 433 90 550 157 62
36 192 164 245 242 52 76 70 138 80 277 l7 102 55 -24 c75 -34 194 -70 278
-85 39 -7 75 -17 81 -21 15 -12 138 -28 144 -19 3 4 82 -1 175 -11 94 -10 218
-18 278 -19 70 0 107 -4 107 -11 0 -14 132 -1 141 14 4 6 25 7 50 4 65 -9 187
30 252 81 64 50 202 192 219 226 18 36 20 52 14 160 -10 197 -28 334 -45 346
-4 3 -17 54 -30 114 -12 60 -33 144 -47 185 -13 42 -24 86 -24 99 0 23 2 23
74 21 85 -4 90 -1 196 98 116 108 190 212 239 333 23 58 48 116 55 130 19 37
48 149 41 160 -3 5 1 20 9 32 9 13 18 46 20 74 3 28 30 122 60 210 70 200 104
330 113 419 6 62 10 74 43 110 128 139 153 172 189 243 50 100 102 255 136
413 16 68 31 126 35 129 11 7 28 118 20 127 -4 4 -2 55 6 113 25 206 35 337
40 505 2 94 11 228 19 299 8 71 11 134 7 140 -5 6 -4 79 2 161 5 83 9 175 9
205 -2 209 -7 311 -18 350 -13 43 -20 85 -31 181 -2 24 -11 67 -19 94 -31 106
-53 205 -45 205 10 0 -14 96 -28 113 -11 13 -66 233 -64 257 2 25 -29 193 -43
235 -8 22 -23 96 -35 165 -12 69 -30 172 -41 228 -10 57 -16 108 -13 113 8 13
-16 109 -27 109 -5 0 -9 6 -9 14 0 8 -16 70 -36 138 -20 68 -38 137 -40 153
-2 17 -17 55 -32 85 -27 52 -28 60 -24 158 2 56 8 102 13 102 18 0 8 29 -29
86 -143 220 -237 358 -281 413 -28 35 -51 67 -51 72 0 12 -255 259 -340 329
-41 34 -80 68 -85 75 -6 7 -43 33 -83 59 -39 26 -84 58 -99 72 -14 13 -43 34
-62 46 -20 12 -58 42 -85 66 -28 24 -64 50 -80 59 -38 19 -301 219 -375 284
-29 26 -65 54 -80 61 -27 13 -339 247 -370 276 -54 52 -90 80 -95 75 -3 -4 -6
1 -6 10 0 16 -239 267 -255 267 -6 1 -37 26 -70 56 -115 106 -236 204 -325
264 -49 33 -92 60 -96 60 -4 0 -41 22 -83 48 -42 27 -105 64 -141 83 -36 18
-70 38 -76 44 -11 11 -41 24 -159 71 -38 15 -77 33 -85 39 -8 7 -35 20 -59 29
-25 10 -73 44 -108 76 -58 54 -168 127 -225 149 -13 5 -51 36 -84 69 -54 55
-73 66 -244 140 -102 44 -214 92 -250 105 -150 57 -304 110 -317 110 -7 0 -13
4 -13 8 0 5 -7 5 -17 2 -11 -5 -14 -3 -8 6 6 10 2 11 -15 6 -16 -5 -20 -4 -15
5 5 9 1 10 -15 5 -13 -4 -20 -3 -17 2 3 5 -2 9 -11 9 -31 1 -416 125 -423 136
-4 6 -13 8 -21 5 -8 -2 -104 17 -214 44 -109 27 -208 49 -219 49 -17 0 -18 2
-5 11 11 7 4 8 -25 4 -31 -5 -37 -4 -25 5 12 9 6 10 -25 5 -24 -3 -35 -2 -27
3 21 14 -363 78 -644 107 -142 15 -211 16 -575 7 -228 -6 -443 -8 -478 -5 -41
4 -62 2 -58 -4 4 -7 -28 -13 -86 -17 -230 -16 -242 -16 -222 -6 16 8 13 9 -15
6 -19 -3 -100 -8 -180 -11 -80 -4 -167 -13 -194 -21 -58 -16 -266 -20 -266 -4
0 6 -28 10 -65 10 -36 0 -65 -3 -65 -8 0 -10 -94 -2 -101 10 -3 5 -60 11 -126
13 -86 2 -128 8 -144 18 -22 14 -55 21 -155 31 -99 11 -309 99 -381 161 -77
66 -167 222 -288 501 -76 175 -152 317 -294 553 l-120 199 42 45 c272 291 332
419 420 905 18 100 36 180 39 177 7 -7 41 141 43 190 3 55 50 194 97 283 21
40 38 80 38 88 0 8 52 124 115 259 63 134 115 249 115 254 0 6 6 14 14 18 14
8 39 73 42 108 3 31 37 139 45 145 12 8 30 97 23 113 -6 16 20 165 43 245 8
30 17 80 19 111 9 146 116 778 139 821 7 14 21 81 30 150 14 103 16 164 10
350 -4 124 -13 262 -21 308 -8 46 -11 88 -8 94 5 7 2 8 -6 3 -9 -6 -10 -2 -5
15 5 17 4 21 -6 15 -9 -6 -11 -4 -6 7 7 19 -34 98 -76 146 -66 75 -236 242
-244 240 -4 -1 -25 6 -46 15 -88 38 -287 44 -417 12 -85 -21 -181 -68 -226
-111 -23 -21 -71 -63 -107 -93 -37 -30 -64 -57 -62 -61 5 -7 -43 -55 -61 -61
-13 -5 -131 -136 -152 -169 -24 -38 -96 -131 -127 -164 -14 -16 -38 -47 -53
-70 -15 -22 -35 -50 -44 -60 -10 -11 -36 -49 -57 -85 -22 -36 -54 -82 -71
-101 -18 -19 -45 -57 -61 -85 -16 -27 -42 -66 -59 -85 -17 -19 -41 -51 -54
-70 -99 -150 -120 -180 -126 -180 -8 0 -70 -97 -70 -110 0 -5 -6 -15 -14 -23
-28 -27 -129 -182 -149 -227 -11 -25 -34 -65 -51 -90 -17 -25 -60 -103 -96
-173 -36 -71 -73 -137 -83 -148 -10 -10 -34 -56 -53 -101 -19 -46 -60 -131
-90 -190 -30 -60 -52 -112 -49 -118 3 -5 2 -10 -3 -10 -13 0 -48 -84 -62 -145
-6 -27 -24 -78 -39 -114 -16 -36 -36 -91 -45 -121 -8 -30 -25 -89 -37 -130
-11 -41 -25 -77 -29 -80 -12 -7 -71 -251 -66 -269 3 -9 -3 -67 -12 -129 l-17
-113 -24 88 c-14 48 -25 99 -26 113 -6 69 -40 234 -65 310 -35 105 -62 219
-54 231 13 22 -106 405 -166 534 -21 44 -57 123 -81 175 -127 281 -335 613
-549 874 -81 99 -450 465 -597 593 -116 101 -270 220 -403 315 -58 41 -200
142 -317 225 -241 172 -373 250 -485 287 -69 24 -92 26 -235 26 -151 0 -162
-1 -210 -26z m345 -200 c111 -37 244 -115 480 -283 114 -81 253 -180 309 -219
228 -161 416 -316 610 -506 l143 -139 -73 -79 c-226 -247 -343 -425 -408 -618
-29 -87 -32 -109 -36 -255 -5 -147 -1 -194 24 -327 5 -25 2 -28 -20 -28 -14 0
-97 18 -185 40 -203 51 -385 118 -548 202 l-71 37 -42 123 c-75 216 -168 441
-287 695 -274 586 -342 828 -300 1072 47 270 177 361 404 285z m5428 -81 c28
-14 73 -44 98 -67 l46 -43 1 -94 c0 -52 3 -88 6 -81 7 17 23 15 23 -3 0 -8 -4
-15 -8 -15 -5 0 -67 -59 -138 -130 -117 -119 -129 -134 -129 -167 l0 -36 75
-18 c41 -10 120 -29 175 -42 98 -23 100 -24 118 -61 22 -46 17 -97 -39 -396
-19 -102 -50 -288 -69 -415 -47 -308 -37 -277 -88 -258 -28 10 -90 17 -189 21
l-147 4 -30 47 c-163 257 -229 542 -186 807 9 60 23 123 30 139 6 17 15 48 19
70 12 63 31 115 142 397 30 75 54 141 54 146 0 5 8 20 19 33 10 13 21 40 24
59 3 19 14 59 24 88 l18 54 49 -7 c27 -3 73 -18 102 -32z m-416 -179 c43 -76
43 -77 29 -116 -8 -22 -19 -40 -24 -40 -5 0 -33 42 -63 93 l-54 94 29 22 c15
13 30 23 34 23 3 0 25 -34 49 -76z m-121 -200 l71 -122 -16 -47 c-20 -58 -19
-60 -118 114 l-77 134 28 29 c15 15 30 25 34 21 4 -5 39 -63 78 -129z m802 19
c11 -43 22 -120 26 -170 7 -109 12 -105 -108 -73 -41 11 -84 20 -97 20 -46 0
-32 27 58 115 94 93 107 120 74 156 -13 14 -13 21 -4 40 11 20 14 20 22 6 5
-9 18 -51 29 -94z m-977 -366 l126 -218 0 -149 c0 -83 -3 -150 -7 -150 -7 0
-122 196 -325 550 l-27 47 51 71 c28 40 52 71 54 69 1 -1 58 -100 128 -220z
m-199 -222 c134 -232 347 -603 438 -760 42 -71 71 -132 66 -134 -6 -1 -12 -1
-14 0 -2 4 -350 607 -402 699 -11 19 -33 58 -50 85 -16 28 -32 57 -36 65 -4 8
-34 60 -66 115 -33 55 -57 103 -54 108 8 13 13 6 118 -178z m109 -474 l285
-493 -31 -26 c-25 -21 -32 -23 -39 -11 -4 8 -136 235 -292 504 l-283 490 25
38 25 39 12 -24 c7 -13 141 -245 298 -517z m-284 89 c84 -146 178 -308 208
-360 30 -52 90 -157 133 -232 l79 -137 -18 -30 c-9 -17 -22 -31 -29 -31 -6 0
-22 19 -35 43 -13 23 -87 150 -163 282 -76 132 -194 335 -261 452 l-122 211
26 36 c14 20 26 35 27 34 2 -2 71 -122 155 -268z m-2730 130 c0 -5 31 -62 69
-127 37 -65 129 -224 203 -353 75 -129 233 -403 351 -608 232 -400 214 -360
272 -604 l13 -57 -86 90 c-80 84 -101 117 -297 457 -232 403 -297 516 -494
855 -73 125 -134 234 -137 242 -4 9 12 36 38 64 40 47 68 64 68 41z m2788
-637 l250 -433 -24 -75 c-13 -42 -24 -82 -24 -90 0 -34 -28 -10 -66 58 -53 94
-106 186 -363 629 l-212 367 48 69 48 69 46 -81 c26 -45 159 -276 297 -513z
m-2926 340 c31 -54 113 -197 183 -318 140 -242 281 -485 386 -669 38 -66 67
-121 65 -123 -1 -2 -27 7 -57 20 -30 13 -77 32 -106 41 -46 15 -56 23 -81 69
-24 45 -157 275 -387 672 -32 55 -80 138 -106 184 -27 46 -49 89 -49 96 0 14
80 125 90 125 4 0 32 -44 62 -97z m2612 -344 c106 -184 191 -336 189 -339 -13
-14 -100 105 -183 250 -52 91 -124 216 -161 279 -55 93 -66 118 -58 134 6 10
13 17 15 14 3 -3 92 -155 198 -338z m-2601 -221 c130 -226 235 -413 233 -415
-7 -8 -167 20 -181 31 -7 6 -93 148 -189 316 -147 254 -176 310 -171 334 6 34
55 146 64 146 3 0 113 -186 244 -412z m2274 150 c43 -34 80 -64 83 -67 3 -4
22 -19 43 -34 219 -164 835 -715 1079 -967 l148 -152 -16 -36 c-75 -171 -121
-342 -185 -692 -23 -124 -44 -233 -48 -242 -4 -12 -89 126 -270 440 -617 1065
-560 972 -597 972 -96 0 -90 -24 74 -307 77 -131 238 -409 359 -618 121 -209
255 -441 298 -515 43 -74 78 -143 77 -152 -2 -44 -102 -226 -165 -302 l-24
-30 -239 320 -239 319 -40 0 c-40 0 -40 0 -43 -40 -3 -39 7 -54 222 -343 124
-166 233 -313 241 -325 14 -22 11 -26 -65 -102 -44 -44 -80 -83 -80 -88 0 -4
24 -42 54 -85 72 -103 254 -408 327 -546 32 -61 83 -169 114 -240 151 -348
247 -496 392 -605 115 -86 323 -161 551 -197 l111 -18 48 -65 c69 -92 67 -86
25 -111 -20 -12 -90 -60 -155 -107 -114 -82 -119 -84 -133 -65 -97 140 -740
859 -943 1057 -28 27 -51 53 -51 57 0 5 -29 53 -63 106 -328 505 -513 868
-700 1372 -101 272 -203 586 -213 654 -4 22 -10 46 -15 51 -11 14 -119 421
-126 475 -3 25 -9 52 -14 60 -4 9 -19 70 -34 135 -14 66 -34 158 -45 205 -10
47 -28 137 -40 200 -11 63 -25 132 -29 152 -8 33 -2 51 51 165 53 112 189 373
195 373 1 0 37 -28 80 -62z m1662 -8 c42 -12 82 -25 90 -29 11 -7 9 -36 -16
-167 l-29 -159 -78 -7 c-195 -18 -366 -173 -442 -400 -14 -43 -30 -78 -34 -76
-4 2 -56 49 -115 106 l-106 103 11 55 c44 209 152 394 287 491 134 95 281 123
432 83z m-4165 -296 c65 -113 117 -207 115 -208 -4 -4 -156 21 -175 28 -32 12
-97 386 -66 386 5 0 61 -93 126 -206z m-869 -72 c254 -111 632 -199 1134 -263
118 -15 345 -74 443 -115 245 -102 412 -248 575 -504 54 -85 62 -114 35 -143
-33 -36 -89 -147 -114 -227 -21 -68 -23 -93 -23 -280 0 -192 2 -212 28 -317
26 -104 30 -131 17 -126 -77 33 -350 156 -362 163 -10 6 -30 10 -45 10 -21 0
-49 21 -120 92 -80 80 -93 97 -93 126 0 22 -8 40 -24 55 -23 22 -131 184 -301
452 -49 77 -97 150 -106 163 -17 22 -17 33 1 77 5 11 20 61 35 110 14 50 31
100 36 113 10 26 12 63 3 86 -8 20 -58 21 -116 2 -71 -23 -234 -66 -253 -66
-10 0 -72 35 -139 77 -67 42 -170 108 -231 146 -165 104 -216 138 -255 167
-19 15 -48 28 -65 28 -46 3 -123 86 -151 162 -13 36 -17 59 -10 56 6 -2 52
-22 101 -44z m5035 -153 c-44 -131 -78 -197 -119 -235 -59 -52 -114 -143 -142
-229 -13 -41 -26 -75 -29 -75 -3 0 -32 27 -65 60 l-60 60 18 68 c42 161 141
304 253 364 45 25 154 60 162 53 2 -1 -7 -31 -18 -66z m-5016 -81 c1 -15 13
-40 28 -55 26 -28 86 -120 206 -315 35 -57 91 -146 124 -198 l61 -95 -13 -60
c-6 -33 -15 -67 -20 -75 -20 -35 -261 387 -351 615 -33 85 -99 266 -99 273 0
2 14 -11 31 -29 18 -19 32 -46 33 -61z m2953 -142 c17 -30 29 -57 25 -60 -5
-6 -14 8 -50 77 -31 57 -11 44 25 -17z m-2558 -139 c25 -17 60 -39 76 -47 17
-8 50 -29 75 -45 112 -76 140 -88 194 -82 28 3 93 18 144 32 51 15 95 25 97
23 3 -2 -11 -53 -30 -112 -47 -142 -46 -175 6 -251 22 -33 58 -91 81 -130 23
-38 54 -87 71 -108 16 -21 26 -41 23 -45 -4 -3 -188 175 -409 396 -221 221
-396 402 -388 402 7 0 34 -15 60 -33z m2566 -148 c52 -89 93 -164 91 -166 -1
-2 -29 2 -60 9 -63 12 -72 22 -151 164 l-29 52 19 61 c11 37 22 58 27 53 5 -5
52 -83 103 -173z m-1877 -635 c-3 -2 -41 20 -86 49 -230 149 -234 151 -281
151 -26 1 -90 -14 -149 -33 -57 -18 -106 -31 -108 -28 -3 2 9 54 26 116 42
156 41 168 -29 281 -124 199 -141 228 -141 234 0 3 174 -168 386 -380 212
-212 384 -388 382 -390z m1768 395 c79 -14 216 -56 236 -72 15 -12 93 -285 84
-294 -2 -3 -36 0 -75 6 -142 22 -289 9 -386 -34 -30 -13 -55 -20 -55 -14 0 25
32 226 51 317 l22 102 31 0 c18 0 59 -5 92 -11z m-616 -273 c0 -23 79 -262
116 -351 31 -74 39 -85 61 -85 18 0 23 -4 19 -17 -31 -107 -33 -249 -6 -408
11 -64 20 -119 20 -121 0 -2 -44 18 -98 45 -97 49 -99 50 -119 103 -92 240
-123 470 -88 638 26 123 95 265 95 196z m-1432 -72 c48 -31 107 -70 132 -85
55 -36 60 -39 135 -87 216 -141 262 -172 279 -191 11 -12 31 -21 48 -21 41 0
198 -156 209 -208 8 -42 65 -179 137 -334 28 -59 48 -109 45 -112 -3 -2 -16 0
-30 5 -14 5 -67 19 -117 31 -77 19 -121 22 -296 22 -173 1 -215 -2 -270 -18
-74 -22 -165 -65 -227 -107 -40 -28 -73 -30 -73 -5 1 27 203 236 313 323 l28
22 -164 208 c-259 329 -429 557 -420 560 46 15 170 52 176 52 4 1 47 -24 95
-55z m2267 -115 c22 -5 63 -17 92 -25 l51 -14 22 -72 c11 -40 23 -80 25 -88 4
-13 -17 -15 -153 -15 -157 0 -157 0 -223 -32 -82 -41 -150 -112 -192 -201 -31
-66 -32 -69 -32 -227 0 -88 4 -182 8 -209 l9 -49 -29 17 c-46 30 -61 53 -92
149 -41 130 -58 274 -43 371 6 42 18 92 26 111 14 32 19 35 54 35 l39 0 6 66
c7 75 19 92 85 131 96 57 246 79 347 52z m115 -309 c51 -12 100 -25 108 -29 8
-4 38 -77 67 -162 77 -226 111 -317 209 -554 59 -141 257 -539 329 -658 36
-59 68 -115 71 -124 7 -18 13 -22 -166 126 -237 196 -593 450 -920 656 l-63
40 -34 100 c-32 91 -35 111 -35 220 -1 119 -1 121 37 197 52 108 114 157 237
189 36 10 65 18 65 18 1 1 43 -8 95 -19z m-1290 -350 c3 -4 16 -11 30 -15 71
-21 504 -247 730 -380 559 -331 1079 -719 1495 -1116 307 -293 789 -822 1042
-1145 l32 -40 -58 -46 c-31 -26 -97 -82 -146 -126 l-89 -79 -130 156 c-123
148 -265 317 -491 586 -119 141 -436 520 -724 865 -112 135 -220 262 -240 283
-54 57 -111 48 -111 -18 0 -26 29 -66 168 -231 340 -404 839 -1001 1001 -1197
31 -38 82 -100 114 -138 33 -38 57 -69 55 -69 -1 0 -617 615 -1368 1366 -805
805 -1355 1363 -1340 1359 14 -4 27 -11 30 -15z m1552 -1629 c743 -745 1345
-1350 1337 -1345 -22 13 -115 89 -223 183 -55 47 -123 104 -152 126 -29 22
-146 119 -260 215 -189 160 -325 274 -850 715 -98 83 -250 210 -336 283 -98
82 -166 132 -179 132 -31 0 -59 -28 -59 -60 0 -22 40 -60 263 -247 144 -121
323 -271 397 -334 74 -62 178 -149 231 -194 52 -44 135 -114 184 -155 49 -41
236 -198 415 -348 179 -151 375 -316 437 -369 l112 -95 -116 -134 c-64 -74
-120 -134 -123 -134 -24 0 -463 378 -784 675 -653 603 -1171 1271 -1640 2113
-70 124 -251 487 -261 522 -4 14 -14 34 -21 45 -8 11 -14 26 -14 33 0 18 49
-31 1642 -1627z m-1916 1310 c98 -19 172 -40 285 -82 54 -19 57 -23 98 -100
27 -51 38 -79 29 -79 -7 0 -47 7 -88 17 -105 23 -323 23 -410 -1 -99 -26 -159
-57 -223 -116 -70 -64 -106 -115 -138 -195 -21 -54 -23 -76 -23 -215 0 -88 4
-171 11 -192 9 -31 9 -38 -2 -38 -14 0 -254 56 -278 65 -17 7 -38 60 -62 154
-66 261 -16 484 144 633 154 145 394 199 657 149z m-818 -142 c-2 -6 -8 -10
-13 -10 -5 0 -11 4 -13 10 -2 6 4 11 13 11 9 0 15 -5 13 -11z m-68 -127 c0
-13 -24 -72 -30 -72 -3 0 -12 4 -19 9 -13 8 -12 15 4 44 11 21 24 33 32 30 7
-3 13 -8 13 -11z m1120 -66 c155 -25 290 -76 290 -110 0 -11 -8 -12 -42 -4
-24 5 -104 10 -178 10 -113 0 -145 -3 -199 -22 -114 -38 -202 -116 -249 -219
-21 -47 -26 -75 -30 -172 -2 -68 0 -138 7 -169 6 -29 9 -55 7 -58 -8 -7 -148
31 -161 45 -14 14 -43 122 -55 206 -26 179 84 381 247 454 113 50 224 62 363
39z m-1195 -122 c20 -13 25 -25 25 -60 0 -24 -2 -44 -5 -44 -3 0 -23 12 -44
26 -37 24 -39 27 -30 57 5 18 9 33 9 34 0 8 24 1 45 -13z m1485 -110 c94 -32
82 -19 210 -226 148 -241 415 -615 588 -826 46 -57 82 -106 78 -109 -3 -3 -11
-1 -18 5 -41 33 -307 172 -503 262 -179 83 -555 225 -778 295 -83 26 -122 44
-132 59 -8 11 -24 59 -36 106 -54 212 31 380 227 450 87 30 246 23 364 -16z
m-1511 -109 c53 -31 61 -40 66 -73 4 -20 13 -62 20 -92 7 -30 12 -57 10 -59
-3 -3 -159 82 -174 95 -4 4 10 164 15 164 1 0 30 -16 63 -35z m61 -335 c199
-43 269 -59 400 -95 74 -19 155 -40 180 -45 104 -23 677 -211 861 -282 212
-83 531 -231 678 -315 93 -54 427 -253 455 -272 16 -11 120 -109 230 -218 282
-279 653 -613 934 -842 56 -46 102 -88 102 -92 0 -5 -37 -62 -82 -127 -46 -65
-90 -128 -98 -141 l-16 -24 -149 115 c-83 62 -379 287 -660 498 -280 212 -588
445 -685 518 -96 72 -287 217 -425 321 -137 104 -331 250 -430 325 -160 121
-184 136 -215 134 -32 -3 -35 -6 -41 -40 -5 -32 -2 -41 20 -61 14 -13 175
-136 356 -272 182 -137 402 -303 490 -370 228 -172 931 -704 1423 -1075 135
-102 247 -190 248 -195 2 -6 -3 -18 -11 -29 -13 -18 -15 -18 -57 6 -116 65
-1149 659 -1668 958 -322 185 -801 461 -1065 612 -264 152 -561 322 -660 379
l-180 104 -7 90 c-8 93 -45 402 -54 443 -4 19 -1 23 13 18 10 -3 61 -15 113
-26z m113 -764 c89 -51 331 -190 538 -308 206 -119 735 -422 1175 -675 439
-253 988 -569 1219 -702 231 -132 426 -245 434 -250 10 -6 11 -13 2 -29 -11
-21 -11 -21 -84 9 -39 17 -81 34 -92 39 -40 19 -422 183 -475 205 -51 21 -398
170 -465 200 -16 8 -115 50 -220 95 -104 45 -199 85 -210 90 -55 25 -357 155
-405 175 -30 12 -224 96 -430 185 -609 263 -673 290 -706 290 -39 0 -56 -20
-52 -57 2 -23 14 -33 68 -60 62 -31 315 -141 430 -188 65 -27 866 -371 895
-385 30 -14 761 -329 825 -355 30 -12 145 -61 255 -109 110 -48 289 -126 398
-173 108 -47 197 -87 197 -89 0 -2 -22 -48 -48 -101 -26 -54 -61 -128 -77
-165 -16 -39 -34 -68 -42 -68 -8 0 -42 11 -76 24 -249 97 -658 236 -916 312
-203 60 -393 114 -403 114 -7 0 -19 6 -27 13 -9 8 -90 52 -181 99 -464 241
-743 419 -1105 706 -240 191 -614 526 -633 567 -6 14 -17 25 -25 25 -7 0 -34
21 -59 48 l-47 47 45 130 c54 155 92 302 101 385 4 47 9 60 20 56 8 -3 87 -48
176 -100z m7132 -126 c105 -9 517 -59 522 -63 1 -1 -116 -3 -260 -3 -331 -2
-549 -26 -861 -95 -52 -11 -93 -16 -98 -11 -8 8 -38 118 -42 152 -1 12 19 16
104 21 189 9 512 9 635 -1z m-1256 -44 c-2 -3 -42 -20 -89 -39 -442 -178 -871
-445 -1235 -768 -60 -53 -121 -109 -134 -123 -14 -14 -32 -26 -41 -26 -8 0
-42 26 -74 59 -50 51 -57 61 -47 79 13 24 210 199 350 311 188 150 413 300
631 422 l115 64 215 11 c273 14 314 15 309 10z m439 -56 c7 -30 16 -68 18 -85
l5 -30 -128 -40 c-546 -169 -1059 -464 -1500 -862 -63 -57 -117 -103 -121
-103 -4 0 -34 27 -67 60 l-60 60 60 58 c432 413 990 748 1590 953 77 27 151
47 164 46 21 -2 27 -10 39 -57z m-1279 28 c12 -19 11 -23 -5 -35 -25 -18 -26
-17 -52 22 l-22 35 33 0 c22 0 36 -7 46 -22z m2676 -108 c156 -12 400 -48 545
-81 52 -12 107 -24 123 -26 15 -3 27 -9 27 -14 0 -5 7 -9 15 -9 8 0 15 -6 15
-14 0 -12 -30 -116 -36 -125 -2 -2 -58 9 -126 23 -350 73 -554 91 -936 83
-324 -8 -471 -24 -750 -86 -45 -10 -84 -15 -87 -12 -3 6 -35 137 -35 145 0 4
7 6 190 44 352 73 706 97 1055 72z m955 -196 c109 -37 263 -96 325 -123 304
-137 566 -289 800 -465 116 -86 282 -227 338 -283 l48 -49 -52 -52 -51 -51
-102 91 c-402 361 -840 615 -1341 778 -216 70 -204 63 -193 114 4 22 13 53 20
69 10 25 14 27 47 21 20 -4 92 -26 161 -50z m-2273 -29 c13 -38 22 -70 20 -70
-1 -1 -56 -19 -122 -40 -394 -122 -849 -360 -1160 -605 -90 -71 -280 -236
-309 -269 -28 -31 -47 -26 -95 23 -36 37 -41 47 -32 64 11 21 193 184 306 273
295 235 657 442 1015 581 114 45 334 117 345 114 6 -1 20 -33 32 -71z m1258
-45 c317 -20 715 -98 715 -139 0 -5 -9 -37 -20 -71 -11 -34 -20 -71 -20 -80 0
-24 -22 -31 -62 -19 -72 21 -280 58 -418 75 -200 25 -617 25 -823 1 -128 -15
-323 -50 -409 -72 -24 -6 -28 -4 -37 32 -33 120 -39 152 -27 162 6 5 79 24
161 40 350 71 620 92 940 71z m-7889 -162 c35 -33 64 -65 64 -69 0 -4 -15 -11
-32 -15 -50 -10 -159 -71 -202 -112 l-39 -37 6 80 c3 44 11 104 17 132 11 51
13 53 58 67 26 8 51 15 55 15 5 1 38 -27 73 -61z m8804 -20 c69 -22 139 -46
155 -54 17 -7 62 -25 100 -39 121 -47 388 -183 528 -270 224 -139 375 -253
596 -451 l44 -40 -73 -69 c-39 -39 -75 -68 -78 -66 -4 2 -58 48 -121 103 -227
199 -445 346 -726 488 -142 72 -417 190 -443 190 -8 0 -195 61 -200 65 -3 2
20 97 38 157 12 42 2 43 180 -14z m-2110 -10 c6 -24 17 -65 25 -92 9 -27 12
-53 8 -56 -5 -4 -68 -26 -142 -50 -450 -145 -888 -401 -1240 -724 -46 -42 -88
-76 -95 -76 -6 0 -40 29 -75 64 -76 77 -83 58 79 200 379 334 786 570 1260
732 162 55 166 55 180 2z m3141 -13 c68 -30 125 -58 127 -64 2 -5 -6 -12 -17
-16 -14 -4 -35 4 -67 26 -26 18 -77 49 -113 71 -36 21 -63 38 -60 38 3 0 62
-25 130 -55z m-9567 -203 c412 -359 864 -683 1177 -844 77 -39 62 -45 -53 -24
-243 45 -636 91 -918 106 -113 6 -246 13 -296 16 l-91 6 -79 73 c-73 68 -78
75 -66 95 11 18 9 28 -17 73 -39 68 -88 195 -106 270 -13 57 -13 62 10 106 42
83 137 155 253 192 31 10 63 18 71 18 7 1 59 -39 115 -87z m7676 78 c188 -17
470 -68 554 -100 21 -8 26 -15 21 -28 -6 -16 -18 -59 -66 -242 -20 -76 -30
-110 -69 -255 -12 -44 -30 -114 -41 -155 -11 -41 -29 -109 -40 -150 -11 -41
-26 -97 -34 -125 -8 -27 -23 -85 -34 -127 -12 -43 -30 -112 -41 -153 -11 -41
-29 -110 -40 -152 -12 -43 -27 -100 -35 -128 -8 -27 -23 -84 -34 -125 -10 -41
-28 -109 -39 -150 -11 -41 -30 -111 -42 -155 -22 -80 -44 -163 -59 -220 -4
-16 -12 -29 -17 -28 -89 16 -238 24 -324 19 -58 -4 -118 -8 -135 -9 -27 -2
-30 1 -42 48 -6 28 -21 84 -32 125 -11 41 -29 111 -41 155 -21 81 -31 116 -70
260 -12 44 -30 113 -41 153 -48 182 -61 230 -74 277 -13 47 -28 103 -74 275
-40 155 -62 236 -76 285 -7 28 -23 84 -34 125 -10 41 -28 109 -39 150 -11 41
-30 111 -42 155 -31 113 -44 175 -37 182 18 17 361 78 517 92 139 12 428 12
560 1z m2225 -91 c44 -21 104 -60 134 -86 49 -43 52 -48 36 -60 -14 -10 -15
-13 -4 -17 60 -18 208 -70 226 -80 22 -11 22 -12 -18 -54 l-41 -43 -67 64
c-110 106 -239 215 -351 297 -57 41 -27 34 85 -21z m-1575 -36 c21 -1 184 -56
310 -106 104 -41 423 -198 477 -235 15 -10 75 -49 133 -87 128 -83 242 -170
378 -289 56 -49 102 -90 102 -90 0 -1 -360 -362 -801 -804 l-801 -802 -63 50
c-71 56 -199 128 -290 161 -33 12 -63 24 -67 28 -7 6 -3 28 32 156 12 44 31
114 42 155 27 107 57 217 73 275 14 48 35 127 76 285 21 78 32 119 69 255 21
78 48 179 75 280 7 28 23 86 35 130 12 44 31 114 42 155 11 41 29 109 39 150
11 41 26 98 34 125 8 28 23 84 33 126 22 89 29 103 45 91 7 -5 19 -9 27 -9z
m-4071 -65 c34 -35 61 -65 61 -68 0 -3 -23 -30 -51 -60 -369 -399 -640 -810
-834 -1265 -25 -60 -53 -123 -60 -140 -8 -16 -43 -117 -77 -223 l-63 -193 -40
6 c-33 4 -143 34 -153 40 -5 3 98 304 142 416 195 497 469 951 810 1343 94
109 188 206 198 206 3 0 34 -28 67 -62z m2258 7 c7 -27 27 -104 44 -170 16
-66 34 -129 39 -140 5 -11 22 -74 39 -140 30 -120 84 -323 123 -465 11 -41 28
-104 37 -140 10 -36 20 -72 24 -80 3 -8 11 -42 18 -74 6 -33 15 -67 20 -75 4
-9 22 -70 38 -136 72 -285 103 -401 111 -420 4 -11 20 -69 35 -130 15 -60 31
-118 36 -128 11 -20 4 -37 -14 -37 -7 0 -50 -17 -97 -38 -79 -35 -190 -105
-268 -169 l-33 -27 -797 798 -797 797 85 80 c316 298 744 550 1205 710 61 21
116 37 124 36 8 -1 20 -24 28 -52z m-1995 -270 c16 -21 6 -37 -65 -113 -185
-196 -391 -473 -531 -716 -162 -281 -285 -570 -392 -925 -5 -15 -32 -12 -126
16 -67 20 -66 4 -6 188 191 580 536 1161 937 1578 l75 77 50 -47 c28 -27 54
-52 58 -58z m5945 46 c39 -24 189 -195 306 -350 325 -427 541 -853 712 -1408
5 -17 -4 -21 -87 -44 -73 -21 -98 -20 -98 4 0 7 -18 69 -40 137 -149 457 -384
893 -681 1265 -91 115 -227 267 -258 291 -12 10 -5 21 45 67 32 31 61 56 64
57 3 0 19 -9 37 -19z m-5800 -189 c74 -74 78 -56 -42 -190 -367 -412 -611
-833 -780 -1349 -25 -76 -47 -143 -50 -150 -3 -9 -12 -10 -32 -3 -15 5 -47 14
-70 20 -26 7 -43 17 -43 26 0 24 69 232 122 364 156 393 366 746 642 1080 77
94 206 230 218 230 4 0 20 -13 35 -28z m5619 -54 c184 -189 409 -498 557 -765
49 -87 126 -243 180 -363 53 -120 167 -441 167 -472 0 -12 -18 -20 -71 -33
-39 -9 -73 -15 -74 -13 -1 2 -15 44 -30 93 -156 521 -429 992 -838 1448 l-57
64 47 50 c27 28 50 51 53 52 3 0 33 -27 66 -61z m688 -77 c255 -192 409 -340
411 -396 0 -6 12 -26 27 -45 51 -68 180 -348 261 -565 57 -152 117 -337 117
-360 0 -8 -29 -20 -72 -30 -40 -9 -81 -20 -90 -26 -15 -7 -20 -3 -33 27 -8 20
-15 41 -15 46 0 6 -19 65 -41 132 -153 452 -361 850 -635 1219 -40 53 -70 97
-67 97 3 0 64 -44 137 -99z m-11349 -51 l39 -40 -42 0 c-24 0 -54 7 -68 16
l-25 17 22 23 c13 13 25 24 29 24 3 0 24 -18 45 -40z m5270 -46 c36 -36 65
-68 65 -71 0 -3 -46 -57 -103 -121 -337 -382 -559 -769 -713 -1242 -20 -63
-38 -116 -39 -118 -5 -5 -195 48 -195 55 0 15 91 278 125 363 149 366 363 722
607 1008 44 52 179 192 184 192 2 0 33 -30 69 -66z m5160 24 c10 -13 55 -64
99 -114 323 -362 576 -803 732 -1274 50 -150 50 -151 -24 -165 -20 -3 -56 -13
-80 -21 -47 -15 -62 -12 -62 13 0 19 -59 197 -107 323 -49 126 -192 408 -277
545 -90 143 -241 344 -355 471 l-90 101 67 70 c37 39 69 71 72 72 3 0 14 -9
25 -21z m-10070 -128 c424 -18 834 -66 1225 -142 384 -74 629 -141 1240 -338
108 -35 479 -169 588 -212 18 -7 31 -15 30 -18 -2 -4 -30 -86 -63 -183 -33
-97 -63 -177 -66 -177 -3 0 -455 165 -1005 366 -549 201 -1055 386 -1124 410
-69 25 -142 52 -163 60 -42 16 -85 18 -105 5 -8 -5 -12 -23 -10 -47 l3 -39
730 -267 c402 -147 764 -279 805 -293 97 -34 130 -48 130 -57 0 -12 -11 -10
-80 12 -34 11 -69 20 -76 20 -8 0 -22 4 -32 10 -9 5 -46 16 -82 24 -36 8 -96
23 -135 34 -38 11 -126 34 -195 52 -69 17 -134 36 -145 40 -11 5 -49 16 -85
24 -113 26 -178 44 -188 50 -5 3 -38 12 -73 20 -35 8 -98 24 -139 36 -41 12
-104 28 -140 36 -36 8 -74 19 -85 24 -11 4 -69 20 -130 35 -60 15 -119 31
-130 35 -11 5 -49 16 -85 24 -36 8 -90 22 -120 30 -321 88 -557 151 -690 185
-36 9 -69 19 -75 22 -5 3 -38 12 -72 19 -34 7 -85 20 -113 29 l-51 17 42 59
c78 113 59 105 253 105 94 0 279 -5 411 -10z m5864 -850 c435 -435 791 -794
791 -798 0 -5 -20 -32 -45 -61 -25 -30 -59 -73 -75 -97 -35 -50 -120 -221
-120 -241 0 -18 -2 -17 -137 18 -65 17 -145 38 -178 46 -33 8 -67 17 -75 20
-19 7 -217 61 -410 112 -80 21 -206 55 -280 75 -74 20 -166 45 -205 55 -38 10
-106 29 -150 41 -44 12 -141 37 -215 57 -74 19 -157 41 -185 49 -27 7 -114 30
-192 51 -78 21 -144 41 -147 44 -3 3 9 50 28 105 141 413 323 750 574 1063 92
115 212 249 224 250 3 1 362 -355 797 -789z m4047 670 c256 -292 474 -645 609
-985 41 -104 105 -294 105 -313 0 -13 -25 -23 -113 -45 -104 -26 -162 -41
-327 -87 -36 -9 -101 -27 -145 -39 -44 -13 -138 -38 -210 -56 -112 -30 -283
-76 -485 -131 -30 -8 -89 -23 -130 -34 -41 -10 -136 -35 -210 -56 -74 -20
-166 -45 -205 -55 -38 -10 -104 -28 -145 -39 -41 -12 -100 -27 -130 -34 -30
-8 -61 -15 -68 -17 -8 -3 -30 34 -60 101 -47 104 -86 168 -148 246 l-33 40
797 800 c438 441 800 801 803 802 4 1 46 -43 95 -98z m-10561 -91 c44 -12 98
-25 120 -30 22 -5 49 -14 60 -19 11 -5 49 -16 85 -24 103 -24 153 -37 175 -46
11 -5 52 -16 90 -25 39 -8 102 -24 140 -35 219 -59 348 -95 415 -112 185 -49
228 -60 275 -73 28 -8 86 -24 130 -35 232 -62 361 -97 430 -116 28 -7 84 -22
125 -33 41 -11 109 -29 150 -41 41 -11 100 -27 130 -34 57 -14 167 -44 280
-75 118 -33 343 -92 470 -124 69 -17 128 -35 131 -39 3 -5 13 -6 21 -3 9 4 19
2 23 -4 3 -6 1 -11 -5 -11 -21 0 -154 21 -290 47 -74 13 -171 31 -215 38 -44
8 -197 35 -340 60 -143 26 -298 53 -345 61 -47 8 -121 21 -165 29 -115 21
-495 88 -742 131 -207 36 -213 37 -233 19 -25 -22 -26 -57 -2 -77 10 -9 85
-27 177 -43 245 -42 285 -49 655 -115 625 -111 734 -130 850 -150 174 -31 254
-45 505 -90 127 -23 276 -49 332 -59 56 -9 105 -20 108 -23 3 -3 -1 -32 -9
-64 -8 -33 -24 -112 -35 -178 -11 -65 -22 -120 -23 -121 -2 -2 -39 3 -83 11
-44 8 -134 24 -200 35 -149 26 -631 125 -705 144 -30 8 -111 28 -180 44 -743
173 -1550 510 -2307 963 -61 36 -83 55 -83 70 0 14 -5 18 -16 14 -14 -5 -16
-1 -11 22 3 16 9 52 13 81 4 28 9 51 13 51 3 0 42 -10 86 -21z m12489 -270 c9
-8 -67 -48 -92 -49 -11 0 -92 159 -92 181 0 7 140 -94 184 -132z m-12490 -85
c28 -11 17 -21 -46 -44 -35 -12 -84 -33 -110 -46 l-46 -23 10 37 c5 20 14 42
19 47 22 23 138 42 173 29z m12799 -148 c86 -66 157 -123 157 -128 0 -4 -6 -8
-13 -8 -8 0 -98 -31 -201 -69 -121 -44 -189 -65 -193 -58 -19 32 -114 330
-107 337 5 5 45 22 89 38 61 22 84 26 95 18 9 -6 86 -65 173 -130z m-12479
-31 c151 -82 301 -156 489 -244 48 -23 89 -41 91 -41 3 0 33 -13 68 -29 97
-44 325 -137 401 -163 37 -12 67 -26 67 -29 0 -3 -105 -9 -232 -12 -371 -10
-745 -57 -1173 -147 -173 -36 -153 -39 -219 28 l-58 60 11 53 c7 30 14 65 17
79 l6 25 -21 -25 -21 -25 0 70 c0 82 16 156 60 278 31 85 34 89 81 112 74 38
147 65 214 80 33 7 60 13 61 14 0 1 72 -37 158 -84z m2586 -135 c0 -5 -4 -10
-10 -10 -5 0 -10 5 -10 10 0 6 5 10 10 10 6 0 10 -4 10 -10z m10144 -78 c-27
-7 -57 -15 -66 -16 -10 -1 -21 -5 -24 -9 -11 -11 -34 -8 -34 3 0 6 8 10 18 10
10 0 22 3 26 8 4 4 28 14 54 23 34 12 51 13 61 5 10 -8 3 -13 -35 -24z m-139
-32 c3 -5 -1 -10 -10 -10 -9 0 -13 5 -10 10 3 6 8 10 10 10 2 0 7 -4 10 -10z
m-9608 -106 c-3 -3 -12 -4 -19 -1 -8 3 -5 6 6 6 11 1 17 -2 13 -5z m10139
-100 c65 -48 154 -116 197 -152 63 -53 75 -67 62 -75 -33 -18 -632 -139 -899
-182 -107 -17 -116 -15 -116 33 0 12 -14 93 -31 178 -16 86 -29 157 -27 159 3
2 98 20 273 50 44 8 143 26 220 39 77 14 151 27 165 29 14 2 27 5 31 6 3 0 59
-38 125 -85z m-9651 -30 c22 -8 48 -14 58 -14 16 0 22 -12 17 -35 -1 -5 -10
-50 -21 -98 -31 -139 -67 -361 -81 -497 -17 -163 -17 -755 0 -910 20 -183 68
-465 103 -609 3 -10 -10 -20 -36 -29 -69 -24 -145 -40 -151 -31 -24 40 -102
461 -126 689 -16 151 -16 709 0 860 19 183 61 427 104 610 l21 90 36 -6 c20
-4 54 -13 76 -20z m8714 -21 c6 -21 19 -81 30 -133 83 -395 95 -520 96 -955 0
-301 -3 -395 -18 -505 -30 -225 -89 -532 -116 -603 -9 -23 -14 -26 -33 -18
-13 5 -54 17 -91 26 -66 17 -69 19 -64 44 2 14 18 94 35 176 68 332 77 439 77
880 0 361 -3 416 -23 560 -25 174 -56 348 -78 435 -22 84 -22 83 59 106 107
32 114 31 126 -13z m-8421 -59 c23 -8 52 -14 62 -14 11 0 20 -4 20 -8 0 -4
-13 -69 -29 -143 -117 -536 -116 -1204 3 -1738 15 -63 26 -115 26 -117 0 -4
-133 -43 -159 -46 -23 -3 -26 2 -43 77 -149 663 -150 1245 -3 1915 9 41 18 81
20 88 5 13 27 10 103 -14z m8105 9 c10 -17 68 -295 87 -418 25 -169 50 -475
50 -625 0 -245 -38 -592 -95 -860 -38 -180 -36 -175 -76 -172 -26 2 -133 29
-146 37 -1 0 6 37 16 81 60 260 90 506 98 814 9 356 -22 690 -92 995 -23 101
-23 108 5 117 14 4 45 14 70 21 53 17 77 20 83 10z m-10368 -82 c22 -5 99 -25
170 -45 196 -55 226 -63 415 -105 396 -90 607 -132 885 -177 88 -14 163 -28
167 -32 3 -4 3 -27 -2 -52 -5 -25 -12 -103 -16 -173 -4 -70 -10 -129 -13 -131
-3 -2 -35 0 -71 5 -36 5 -213 27 -395 49 -181 22 -382 47 -445 55 -63 8 -153
20 -200 25 -47 6 -157 20 -245 31 -88 10 -216 26 -285 34 -125 15 -262 32
-480 60 -63 8 -263 33 -445 55 -181 22 -379 47 -440 55 -175 24 -189 22 -189
-36 0 -37 21 -59 54 -59 26 0 315 -34 550 -65 63 -8 210 -26 325 -40 116 -14
244 -29 285 -35 92 -12 271 -35 490 -61 91 -11 217 -26 280 -34 221 -28 446
-56 560 -70 245 -30 390 -48 515 -64 l130 -16 3 -38 3 -37 -934 0 c-513 0
-1333 -3 -1822 -7 l-888 -6 7 69 c4 38 9 93 13 122 5 47 4 52 -14 52 -19 0
-21 11 -31 133 -7 72 -15 175 -18 228 l-7 96 109 26 c427 102 784 161 1160
192 184 15 747 13 819 -4z m2558 -4 c57 -14 56 2 13 -202 -52 -249 -61 -363
-61 -740 0 -280 4 -376 18 -480 18 -131 59 -353 76 -413 11 -37 7 -41 -78 -66
-32 -9 -59 -12 -64 -7 -4 4 -17 48 -28 97 -131 591 -131 1137 -1 1726 23 103
28 112 56 103 11 -3 43 -11 69 -18z m7561 -187 c90 -454 102 -903 36 -1330
-22 -139 -54 -303 -72 -363 -11 -37 -13 -38 -47 -32 -72 13 -111 26 -111 38 0
7 9 48 19 92 58 246 85 508 85 825 0 315 -28 582 -85 825 -10 44 -19 87 -19
95 0 10 24 21 73 35 l72 20 12 -40 c7 -22 24 -96 37 -165z m-7296 114 c23 -8
51 -14 61 -14 37 0 41 -21 21 -107 -63 -270 -91 -637 -72 -961 11 -192 41
-417 76 -570 10 -47 11 -65 2 -67 -56 -20 -108 -35 -143 -43 l-43 -10 -9 37
c-34 127 -75 363 -92 526 -26 247 -13 644 27 890 14 86 60 306 69 333 5 13 27
10 103 -14z m6994 -19 c21 -76 60 -284 80 -425 19 -131 22 -200 22 -440 0
-347 -13 -456 -101 -863 -5 -27 -8 -28 -47 -22 -22 4 -59 13 -81 21 -22 8 -48
14 -57 14 -16 0 -22 10 -20 30 0 3 12 62 26 130 49 240 61 370 60 700 0 328
-10 443 -60 690 -14 69 -26 131 -27 139 -2 10 20 20 71 32 40 9 76 19 79 23
16 16 47 0 55 -29z m-6673 -67 c78 -20 156 -40 296 -78 144 -39 179 -49 255
-69 41 -11 109 -29 150 -41 41 -11 100 -27 130 -34 30 -8 91 -24 135 -36 44
-12 114 -30 155 -41 88 -23 145 -39 255 -69 44 -12 103 -28 130 -35 28 -7 86
-23 130 -35 118 -32 265 -71 310 -81 22 -5 49 -14 60 -19 11 -5 29 -10 40 -12
15 -3 19 -10 16 -28 -2 -14 -4 -118 -5 -232 -1 -114 -5 -210 -8 -214 -4 -3
-41 -15 -82 -25 -92 -23 -214 -55 -281 -74 -50 -14 -140 -38 -282 -75 -43 -12
-100 -27 -128 -35 -53 -15 -153 -41 -275 -74 -155 -40 -236 -62 -285 -76 -50
-14 -138 -37 -282 -75 -43 -12 -100 -27 -128 -35 -27 -8 -86 -23 -130 -35 -44
-12 -105 -28 -135 -36 -108 -30 -140 -37 -145 -32 -19 19 -69 291 -90 490 -35
336 -6 765 71 1062 19 72 22 78 36 69 7 -3 46 -15 87 -25z m6377 -87 c48 -212
65 -365 71 -621 6 -262 -4 -414 -37 -610 -24 -138 -55 -278 -62 -286 -6 -6
-197 41 -233 57 -11 5 -38 13 -60 18 -22 5 -76 19 -120 31 -102 27 -200 54
-295 78 -41 11 -111 30 -155 42 -258 71 -473 127 -535 141 -25 6 -54 14 -65
19 -11 5 -47 16 -80 24 -65 15 -190 48 -270 71 -72 20 -190 51 -265 69 -36 9
-78 21 -93 28 -26 10 -28 14 -21 52 6 35 7 270 1 375 -2 33 0 35 48 47 105 27
222 58 390 104 44 12 113 30 153 41 107 27 220 58 277 74 47 13 101 28 283 76
42 11 106 27 141 35 35 8 68 17 73 20 5 3 33 12 61 19 29 8 87 23 130 34 42
12 110 30 150 40 39 10 108 29 152 41 44 12 100 26 125 32 25 5 52 12 60 15
29 12 135 40 144 39 5 -1 19 -48 32 -105z m2536 33 c59 -71 248 -341 248 -353
0 -3 -71 -14 -157 -24 -87 -10 -212 -24 -278 -32 -66 -8 -199 -23 -295 -34
-96 -12 -254 -30 -350 -42 -96 -11 -203 -24 -237 -28 l-61 -7 -6 51 c-18 163
-28 327 -20 334 5 4 74 17 154 30 145 22 235 39 470 86 191 39 310 64 370 79
93 24 94 23 162 -60z m328 -496 c0 -11 -45 -28 -76 -28 -13 0 -24 -2 -24 -4 0
-2 16 -37 35 -78 l35 -73 -702 -8 c-386 -4 -708 -5 -715 -3 -7 3 -13 18 -13
34 l0 30 93 10 c50 6 153 18 227 27 74 8 227 26 340 39 113 14 268 32 345 41
77 9 205 24 285 34 130 16 146 16 158 3 6 -9 12 -20 12 -24z m-10782 -320 c-3
-32 -4 -33 -63 -40 -235 -27 -529 -62 -630 -74 -66 -8 -196 -23 -290 -34 -93
-10 -267 -30 -385 -45 -481 -57 -562 -66 -725 -85 -93 -11 -224 -27 -290 -35
-66 -8 -147 -17 -180 -20 -33 -4 -109 -13 -170 -20 -137 -18 -426 -52 -520
-61 -82 -8 -95 -15 -95 -59 0 -46 20 -59 78 -51 26 3 124 15 217 25 180 21
632 74 775 92 102 12 275 32 505 59 94 11 247 29 340 40 94 11 226 27 295 35
69 8 204 24 300 35 96 11 252 29 345 40 94 11 242 29 330 39 88 10 163 17 166
15 3 -2 9 -62 13 -134 4 -72 11 -156 17 -186 6 -31 9 -57 7 -59 -2 -2 -50 -11
-108 -20 -341 -54 -830 -155 -1209 -250 l-176 -44 -290 -12 c-327 -13 -546 -7
-845 22 -308 30 -600 77 -907 146 -25 6 -28 21 -13 72 8 30 6 40 -20 79 -64
97 -99 235 -107 424 l-6 128 559 2 c307 2 1127 4 1822 6 l1263 2 -3 -32z
m10833 -78 c20 -58 39 -118 43 -133 l7 -29 -48 6 c-277 35 -706 87 -988 121
-71 8 -141 17 -155 20 -14 3 -88 12 -165 20 -213 24 -205 21 -205 61 l0 34
233 2 c127 2 459 3 737 3 l505 0 36 -105z m-1159 -120 c178 -22 375 -47 438
-55 63 -8 210 -26 325 -40 116 -14 258 -32 317 -40 59 -8 118 -15 132 -15 15
0 27 -7 30 -17 13 -44 96 -490 96 -516 0 -11 -69 0 -150 24 -85 26 -384 104
-480 125 -41 9 -102 22 -135 30 -199 46 -650 134 -823 161 -61 9 -117 20 -123
24 -8 4 -8 44 0 140 16 194 20 219 36 219 8 0 159 -18 337 -40z m-6027 -95
c20 -67 85 -188 139 -260 87 -115 89 -120 69 -136 -16 -13 -17 -12 -5 3 7 9 9
19 4 22 -4 2 -361 -348 -792 -779 l-784 -785 -44 43 c-123 118 -337 413 -470
644 -130 228 -309 673 -286 711 10 14 73 34 224 67 36 9 74 19 85 24 11 6 40
14 65 20 58 13 181 46 200 54 8 3 44 12 80 21 36 8 90 22 120 30 30 8 87 24
125 34 39 10 77 21 85 25 8 3 44 12 80 21 66 15 109 26 255 66 44 12 107 29
140 36 33 8 69 19 80 24 11 5 40 13 65 19 25 5 79 19 120 30 136 37 234 62
308 81 40 10 76 21 80 24 17 18 46 -1 57 -39z m2145 17 c41 -11 109 -29 150
-41 41 -11 131 -34 200 -51 69 -18 134 -36 145 -41 11 -4 47 -15 80 -23 33 -8
85 -21 115 -30 67 -18 191 -51 285 -76 149 -39 223 -59 300 -80 120 -33 172
-47 260 -70 44 -11 103 -27 130 -34 28 -8 113 -30 190 -50 169 -44 205 -56
205 -72 0 -23 -42 -150 -93 -279 -94 -242 -235 -504 -391 -725 -123 -176 -319
-400 -349 -400 -8 0 -368 356 -801 790 l-787 791 31 42 c87 121 116 167 151
241 20 44 41 94 45 109 8 33 5 33 134 -1z m3645 -377 c420 -72 946 -185 1235
-267 99 -27 364 -108 365 -111 1 -1 14 -61 28 -134 15 -72 30 -139 34 -149 5
-15 2 -16 -28 -11 -19 3 -137 24 -264 47 -126 22 -279 50 -340 60 -60 11 -148
26 -195 34 -174 31 -483 86 -765 136 -159 28 -291 53 -294 56 -3 2 7 68 21
147 15 78 29 159 33 180 3 20 9 37 13 37 4 0 75 -11 157 -25z m-9373 -40 c5
-27 20 -110 34 -183 16 -77 23 -137 18 -142 -5 -4 -54 -16 -109 -25 -159 -28
-308 -54 -595 -104 -63 -11 -205 -36 -315 -55 -110 -19 -317 -56 -460 -81
-143 -26 -296 -53 -340 -60 -177 -31 -255 -45 -370 -65 -66 -12 -155 -27 -198
-34 -43 -8 -83 -18 -88 -23 -6 -6 -9 -28 -7 -49 l3 -39 55 1 c30 0 98 8 150
18 52 9 145 26 205 36 61 11 214 37 340 60 243 43 577 102 710 125 44 8 134
24 200 35 152 28 144 27 144 15 0 -5 -7 -10 -17 -11 -9 0 -24 -3 -32 -6 -8 -3
-35 -11 -60 -18 -104 -27 -198 -52 -245 -65 -27 -8 -86 -23 -130 -35 -44 -12
-114 -30 -155 -41 -41 -11 -104 -27 -140 -35 -36 -8 -74 -19 -85 -24 -11 -4
-40 -14 -65 -20 -56 -14 -173 -45 -265 -70 -38 -10 -104 -28 -145 -38 -41 -11
-111 -30 -155 -42 -125 -34 -174 -47 -260 -70 -44 -11 -102 -27 -130 -35 -53
-15 -153 -41 -275 -74 -218 -57 -316 -83 -356 -96 -20 -6 -28 5 -77 97 -31 56
-59 110 -62 119 -7 18 87 73 395 228 547 276 1108 486 1660 621 359 88 583
136 885 189 121 22 231 42 245 44 14 3 38 4 55 3 28 -1 30 -4 37 -51z m6336
-984 l603 -605 -73 -71 c-40 -38 -116 -104 -168 -146 -327 -260 -667 -447
-1040 -571 -186 -62 -187 -63 -193 -35 -3 12 -15 58 -27 102 -12 44 -28 105
-35 135 -25 102 -47 185 -53 200 -7 20 -40 143 -53 200 -6 25 -14 54 -19 65
-5 11 -14 45 -20 75 -6 30 -15 64 -20 75 -8 20 -31 106 -51 195 -6 25 -14 54
-19 65 -5 11 -14 45 -20 75 -6 30 -15 64 -20 75 -5 11 -14 45 -20 75 -6 30
-15 64 -20 75 -5 11 -13 40 -19 65 -13 58 -46 181 -54 200 -3 8 -11 40 -17 70
-6 30 -15 64 -20 75 -5 11 -14 47 -21 80 -6 33 -15 65 -19 70 -4 6 -11 30 -15
54 -4 24 -14 59 -22 78 -15 37 -5 63 24 63 47 0 235 103 343 189 l75 59 195
-191 c107 -106 466 -464 798 -796z m-2494 970 c3 -5 -1 -11 -9 -14 -9 -4 -12
-1 -8 9 6 16 10 17 17 5z m57 -37 c54 -57 296 -194 344 -194 19 0 30 -25 18
-42 -4 -7 -16 -44 -26 -83 -10 -38 -24 -92 -32 -120 -7 -27 -23 -84 -34 -125
-10 -41 -28 -109 -39 -150 -11 -41 -30 -111 -41 -155 -12 -44 -28 -102 -36
-130 -7 -27 -23 -84 -34 -125 -41 -158 -62 -237 -76 -285 -23 -82 -55 -206
-71 -275 -8 -36 -19 -74 -24 -85 -4 -11 -20 -69 -35 -130 -15 -60 -31 -119
-35 -130 -5 -11 -23 -76 -40 -145 -36 -146 -51 -190 -63 -190 -10 0 -168 53
-257 86 -213 80 -493 227 -690 362 -180 123 -445 343 -438 363 4 12 1571 1579
1579 1579 3 0 16 -12 30 -26z m-171 -8 c0 -2 -8 -10 -17 -17 -16 -13 -17 -12
-4 4 13 16 21 21 21 13z m-7205 -61 c454 -94 1033 -153 1413 -144 83 2 152 2
152 -2 0 -3 -30 -16 -67 -28 -103 -35 -383 -144 -468 -181 -22 -10 -68 -30
-103 -44 -94 -40 -431 -203 -564 -274 -123 -65 -153 -71 -217 -49 -31 11 -37
20 -58 82 -32 92 -63 238 -63 298 0 50 -11 58 -41 31 -10 -9 -22 -13 -28 -10
-24 15 -71 208 -71 293 0 51 4 52 115 28z m4795 -147 c77 -251 222 -565 369
-798 87 -137 244 -346 338 -451 38 -41 79 -89 91 -106 l21 -30 -37 -34 -37
-34 33 36 c57 62 19 52 -43 -11 -58 -59 -71 -96 -17 -49 l27 23 -26 -28 c-36
-38 -46 -32 -175 115 -247 283 -463 619 -604 944 -28 66 -58 134 -65 150 -16
37 -91 260 -99 296 -5 24 -2 28 37 39 63 18 141 38 149 39 4 1 21 -45 38 -101z
m6690 72 c34 -11 71 -20 81 -20 24 0 24 4 -11 -108 -171 -532 -466 -1035 -832
-1417 l-58 -60 -65 65 c-36 35 -65 70 -65 76 0 6 39 56 88 110 341 387 591
820 724 1254 16 52 31 101 33 108 6 17 33 15 105 -8z m-7026 -87 c15 -60 70
-224 113 -331 171 -436 424 -834 750 -1185 35 -37 63 -71 63 -75 0 -4 -24 -30
-52 -57 l-53 -50 49 52 c28 29 46 56 42 60 -4 4 -28 -14 -52 -40 -25 -26 -49
-47 -54 -47 -5 0 -52 48 -104 108 -372 419 -642 885 -812 1400 -24 73 -44 139
-44 146 0 14 15 21 90 41 54 14 56 13 64 -22z m7331 6 c5 -5 19 -9 32 -9 31 0
30 -13 -13 -145 -119 -365 -320 -764 -546 -1082 -116 -163 -320 -405 -384
-455 l-26 -21 -44 44 c-24 24 -44 50 -44 59 0 9 12 27 26 41 46 42 208 231
277 321 181 239 338 508 460 788 51 119 132 345 157 438 l11 44 42 -7 c23 -4
46 -11 52 -16z m-3424 -76 c10 -38 23 -90 29 -118 6 -27 15 -59 20 -70 5 -11
14 -45 20 -75 6 -30 14 -62 17 -70 8 -20 41 -144 54 -200 5 -25 14 -52 18 -61
5 -8 14 -42 20 -75 7 -32 15 -66 18 -74 4 -8 15 -46 25 -85 10 -38 25 -92 33
-120 7 -27 23 -84 34 -125 54 -206 89 -337 96 -360 3 -8 9 -37 15 -65 6 -27
15 -59 20 -70 5 -11 14 -45 20 -75 6 -30 14 -62 17 -70 8 -19 41 -142 54 -200
6 -25 14 -54 19 -65 10 -20 31 -108 27 -111 -7 -6 -199 -48 -287 -64 -329 -59
-717 -64 -1040 -15 -78 12 -330 64 -337 69 -2 2 19 87 41 169 16 58 47 173 77
287 11 41 27 98 34 125 16 55 47 173 115 433 12 42 27 100 35 127 14 50 37
135 74 275 10 41 29 111 41 155 36 131 48 176 69 255 11 41 29 109 40 150 12
41 26 100 33 130 6 30 15 57 20 61 4 3 34 2 65 -2 90 -11 260 -9 348 5 44 6
84 8 89 4 5 -4 18 -38 27 -75z m-4151 -65 c169 -553 444 -1044 825 -1476 129
-147 159 -182 153 -185 -2 -1 -29 -26 -60 -56 -56 -54 -57 -54 -82 -37 -36 23
-226 242 -333 384 -305 401 -536 846 -679 1306 -18 61 -32 111 -31 112 1 1 36
11 77 23 67 20 91 28 97 30 1 1 16 -45 33 -101z m2730 98 c0 -2 -8 -10 -17
-17 -16 -13 -17 -12 -4 4 13 16 21 21 21 13z m5100 -26 c34 -11 71 -20 82 -20
22 0 24 9 -29 -155 -191 -595 -517 -1145 -967 -1630 l-55 -60 -61 60 c-33 33
-60 63 -60 68 0 5 50 64 111 131 395 440 687 950 863 1509 21 64 41 117 45
117 5 0 37 -9 71 -20z m-8140 -98 c0 -22 98 -306 147 -427 195 -478 492 -943
850 -1328 40 -43 73 -83 73 -90 0 -7 -27 -39 -60 -71 l-59 -58 -30 21 c-32 23
-200 211 -292 326 -259 325 -512 753 -654 1106 -25 63 -50 123 -56 134 -18 37
-119 349 -119 367 0 11 10 20 28 24 15 3 50 13 77 21 28 8 55 16 60 18 12 3
35 -24 35 -43z m8453 16 c69 -18 87 -26 87 -41 0 -26 -82 -267 -147 -432 -156
-395 -385 -795 -647 -1130 -87 -111 -237 -284 -305 -350 l-51 -49 -60 59 c-33
33 -60 66 -60 73 0 8 40 58 88 111 285 311 506 632 691 1001 112 224 179 387
253 618 29 89 55 162 58 162 3 0 44 -10 93 -22z m-5453 -2 c0 -2 -8 -10 -17
-17 -16 -13 -17 -12 -4 4 13 16 21 21 21 13z m6190 -67 c91 -17 201 -37 245
-44 44 -8 184 -32 310 -55 307 -55 593 -105 740 -130 66 -12 127 -23 136 -26
11 -3 23 -28 33 -72 9 -37 19 -76 23 -86 4 -16 2 -18 -18 -12 -23 7 -79 22
-246 66 -43 12 -100 27 -128 35 -27 8 -86 23 -130 35 -44 12 -102 27 -130 35
-27 7 -95 25 -150 40 -55 14 -122 32 -150 40 -53 15 -155 42 -282 75 -43 12
-103 28 -133 36 -62 17 -190 50 -262 67 -27 6 -48 15 -48 19 0 12 11 11 190
-23z m-10180 -59 c0 -5 -7 -10 -16 -10 -8 0 -12 5 -9 10 3 6 10 10 16 10 5 0
9 -4 9 -10z m10185 -192 c865 -316 1003 -367 1190 -434 347 -126 374 -137 379
-159 3 -11 9 -62 12 -113 l7 -93 -34 5 c-19 3 -104 17 -190 31 -484 79 -874
186 -1679 460 -64 22 -293 107 -338 126 -17 7 -22 14 -17 27 3 9 32 93 63 185
45 135 59 166 71 162 9 -4 250 -92 536 -197z m-9825 182 c0 -5 -5 -10 -11 -10
-5 0 -7 5 -4 10 3 6 8 10 11 10 2 0 4 -4 4 -10z m-43 -16 c-3 -3 -12 -4 -19
-1 -8 3 -5 6 6 6 11 1 17 -2 13 -5z m437 -165 c31 -94 56 -173 54 -174 -16
-16 -865 -309 -1018 -352 -41 -12 -138 -39 -215 -61 -77 -23 -189 -52 -250
-67 -60 -14 -126 -30 -145 -35 -19 -5 -91 -20 -160 -34 -395 -79 -735 -121
-1222 -150 l-77 -4 -69 116 c-38 64 -75 127 -81 140 -15 29 -35 28 -49 -3 -15
-33 -33 -32 -53 4 l-17 29 47 10 c59 14 182 47 201 55 8 3 40 11 70 17 30 6
64 15 75 20 11 5 47 14 79 21 33 6 67 15 75 20 9 4 36 13 61 18 57 13 180 46
200 54 8 3 44 13 80 21 36 8 90 22 120 30 30 9 84 23 120 32 36 9 74 20 85 24
11 5 47 14 79 21 33 6 67 15 75 20 9 4 36 12 61 18 25 5 81 19 125 31 44 12
107 29 140 36 33 8 69 19 80 24 11 4 76 22 143 39 68 17 128 33 132 36 4 3 36
11 71 19 66 15 187 47 274 71 28 8 82 23 120 33 39 10 77 21 85 25 8 4 33 11
55 16 22 5 69 17 103 26 35 9 66 14 70 11 8 -9 9 -9 -163 -70 -161 -58 -240
-86 -305 -111 -19 -7 -249 -91 -510 -185 -261 -95 -497 -180 -525 -191 -27
-10 -176 -64 -330 -120 -154 -55 -286 -105 -292 -111 -16 -13 -17 -70 -1 -86
7 -7 21 -12 32 -12 17 0 536 184 791 280 66 25 911 332 1045 380 270 97 502
181 575 208 44 17 85 31 90 31 6 1 37 -76 69 -170z m3016 166 c0 -6 -314 -319
-401 -400 -93 -87 6 21 191 208 176 178 210 209 210 192z m-158 -236 c-112
-111 -206 -199 -209 -195 -9 8 379 396 397 396 8 0 -77 -91 -188 -201z m6748
141 c0 -5 -7 -10 -15 -10 -8 0 -15 5 -15 10 0 6 7 10 15 10 8 0 15 -4 15 -10z
m56 -9 c9 -8 30 -15 169 -51 39 -10 106 -28 150 -40 71 -19 189 -51 410 -109
39 -10 106 -29 150 -41 102 -28 154 -42 290 -77 l110 -28 17 -75 c9 -41 16
-76 14 -77 -3 -4 -145 47 -896 322 -206 76 -393 143 -414 149 -42 12 -61 36
-29 36 11 0 23 -4 29 -9z m-9493 -486 c35 -77 68 -149 74 -160 11 -18 -3 -26
-220 -118 -128 -53 -344 -145 -482 -203 -137 -59 -308 -131 -380 -161 -123
-52 -186 -79 -515 -218 -266 -113 -407 -173 -536 -229 -72 -31 -135 -56 -140
-56 -5 -1 -36 -14 -69 -30 l-60 -28 -39 21 c-39 22 -246 212 -246 227 0 7 232
173 340 242 85 55 199 123 328 195 254 142 298 162 440 197 165 41 206 52 437
122 310 94 871 287 960 329 17 8 33 13 38 12 4 -1 36 -65 70 -142z m8663 104
c375 -141 709 -251 1108 -365 104 -29 194 -58 200 -62 6 -5 63 -36 126 -68
238 -120 492 -263 658 -372 l84 -54 -6 -141 c-4 -78 -9 -174 -12 -213 l-5 -72
-77 33 c-81 33 -478 204 -547 235 -22 10 -121 52 -220 95 -99 42 -193 83 -210
90 -16 7 -109 47 -205 88 -711 306 -1057 455 -1107 478 -24 10 -47 19 -53 19
-17 0 -12 15 38 117 26 54 60 128 76 166 15 37 32 67 36 67 4 0 56 -18 116
-41z m-6296 7 c0 -2 -8 -10 -17 -17 -16 -13 -17 -12 -4 4 13 16 21 21 21 13z
m30 -40 c0 -2 -8 -10 -17 -17 -16 -13 -17 -12 -4 4 13 16 21 21 21 13z m-100
-30 c0 -2 -8 -10 -17 -17 -16 -13 -17 -12 -4 4 13 16 21 21 21 13z m30 -40 c0
-2 -8 -10 -17 -17 -16 -13 -17 -12 -4 4 13 16 21 21 21 13z m-110 -39 c0 -1
-24 -25 -52 -52 l-53 -50 50 53 c46 48 55 57 55 49z m-110 -111 c0 -2 -8 -10
-17 -17 -16 -13 -17 -12 -4 4 13 16 21 21 21 13z m-70 -69 c0 -2 -12 -14 -27
-28 l-28 -24 24 28 c23 25 31 32 31 24z m30 -41 c0 -2 -8 -10 -17 -17 -16 -13
-17 -12 -4 4 13 16 21 21 21 13z m-1912 -47 c18 -29 20 -28 -183 -144 -93 -54
-222 -128 -285 -165 -150 -88 -810 -472 -1262 -734 -196 -113 -360 -206 -365
-206 -9 1 -200 269 -205 289 -3 13 22 25 272 131 80 34 154 65 165 70 21 9
143 61 320 135 61 25 119 50 130 55 11 5 70 29 130 55 61 25 119 50 130 55 11
5 85 37 165 70 80 34 186 79 235 100 597 254 727 308 735 309 3 1 11 -9 18
-20z m1812 18 c0 -2 -12 -14 -27 -28 l-28 -24 24 28 c23 25 31 32 31 24z
m6714 -163 c188 -80 359 -154 381 -164 22 -10 121 -52 220 -95 99 -43 194 -83
210 -90 109 -48 409 -177 428 -184 12 -5 43 -18 67 -29 25 -11 146 -64 270
-117 124 -54 298 -129 388 -167 l162 -71 0 -36 c0 -63 -33 -351 -40 -351 -4 0
-47 23 -96 51 -49 28 -289 166 -534 307 -245 140 -560 321 -700 402 -249 143
-464 267 -860 495 -160 92 -235 135 -268 152 -8 4 10 43 20 43 7 0 165 -66
352 -146z m-6794 76 c0 -5 -5 -10 -11 -10 -5 0 -7 5 -4 10 3 6 8 10 11 10 2 0
4 -4 4 -10z m8621 -54 c63 -13 328 -56 340 -56 2 0 3 -43 1 -95 -2 -52 -5 -95
-7 -95 -3 0 -35 20 -72 44 -102 65 -330 196 -342 196 -6 0 -11 5 -11 10 0 13
4 13 91 -4z m-12581 -26 c0 -5 -5 -10 -10 -10 -25 0 -379 -226 -525 -334 -38
-29 -75 -55 -81 -59 -7 -4 -40 25 -79 71 -38 42 -92 103 -122 135 l-53 59 -11
-31 c-15 -41 -49 -50 -88 -22 -30 22 -84 81 -79 87 2 1 122 12 268 24 237 19
547 55 685 79 71 12 95 13 95 1z m2319 -7 c8 -15 -34 -50 -273 -228 -155 -115
-493 -367 -751 -560 -258 -192 -554 -414 -659 -492 -105 -79 -195 -143 -200
-143 -11 0 -226 216 -226 227 1 4 215 132 477 283 262 151 515 298 562 326 47
28 259 151 471 274 212 122 426 247 475 276 50 29 95 53 102 54 7 0 16 -8 22
-17z m8282 -146 c156 -90 424 -244 594 -342 728 -419 834 -480 905 -520 41
-23 179 -102 305 -175 127 -73 270 -155 318 -183 49 -28 91 -57 94 -65 11 -28
-81 -400 -104 -423 -4 -4 -165 111 -358 257 -192 145 -561 424 -820 619 -1046
790 -1239 936 -1242 939 -4 3 18 56 23 56 1 0 130 -73 285 -163z m-6713 89
c-2 -1 -12 -8 -22 -16 -18 -14 -18 -14 -6 7 8 12 18 19 23 16 4 -3 7 -6 5 -7z
m4920 -56 c34 -32 62 -65 62 -73 0 -16 -124 -132 -255 -239 -251 -205 -530
-375 -843 -514 -151 -67 -415 -160 -470 -166 -33 -3 -34 -2 -52 56 -10 32 -22
75 -25 96 l-6 37 93 27 c484 144 963 415 1329 753 50 45 94 83 97 83 4 0 35
-27 70 -60z m-4822 -20 c308 -292 755 -557 1189 -705 77 -26 152 -51 166 -57
l27 -10 -15 -51 c-8 -29 -19 -71 -25 -94 -7 -32 -15 -43 -28 -43 -10 0 -72 18
-137 41 -468 162 -867 386 -1218 683 -103 88 -175 155 -175 164 0 7 132 142
139 142 2 0 37 -31 77 -70z m-1541 -68 c28 -42 75 -111 107 -153 l56 -77 -86
-68 c-241 -191 -593 -507 -956 -856 -44 -43 -85 -79 -91 -82 -6 -2 -69 -42
-141 -88 -146 -96 -407 -252 -536 -322 l-88 -48 0 179 -1 178 -49 40 c-28 22
-50 42 -50 46 0 3 30 28 68 56 74 56 712 532 1262 941 195 145 375 280 399
298 24 19 47 34 50 34 3 0 29 -35 56 -78z m8785 -695 c173 -130 371 -280 440
-332 69 -52 316 -239 550 -416 234 -176 429 -324 434 -329 14 -14 -44 -107
-101 -161 -64 -60 -50 -61 -243 18 -286 117 -618 290 -925 481 -107 67 -144
99 -350 301 -305 300 -654 615 -914 823 -42 34 -82 67 -89 73 -11 10 -4 25 38
81 29 38 75 103 103 145 l50 77 346 -262 c190 -143 488 -368 661 -499z m-7481
540 c157 -151 351 -299 596 -452 106 -67 376 -202 515 -258 139 -57 372 -137
395 -137 8 0 17 -5 20 -10 8 -13 -27 -150 -38 -150 -5 0 -64 18 -130 41 -552
184 -1039 467 -1450 842 l-88 81 53 54 c41 42 48 53 30 49 -12 -3 -20 -1 -16
4 13 21 41 5 113 -64z m5278 29 l45 -45 -25 -33 c-46 -60 -298 -271 -458 -384
-273 -193 -541 -337 -849 -459 -120 -47 -174 -66 -340 -119 -50 -16 -70 -8
-70 28 0 12 -4 26 -9 31 -4 6 -11 24 -14 40 -7 36 0 39 128 76 82 23 265 89
322 114 17 8 34 15 37 15 13 0 286 134 371 182 124 70 300 187 420 277 90 68
300 247 350 299 29 30 42 27 92 -22z m-5449 -35 c-7 -11 -16 -17 -21 -14 -4 3
0 11 10 19 24 18 25 17 11 -5z m19 -227 c200 -181 450 -363 677 -494 249 -144
616 -303 854 -370 45 -13 82 -28 82 -34 0 -12 -41 -160 -46 -165 -1 -2 -26 2
-53 9 -46 11 -50 14 -45 35 5 22 4 22 -38 13 -40 -9 -55 -7 -134 22 -408 149
-798 361 -1143 620 -111 84 -351 288 -380 324 -13 15 -9 23 42 74 57 58 70 79
42 68 -8 -3 -15 -1 -15 4 0 27 40 0 157 -106z m5630 64 c29 -29 53 -60 53 -69
0 -31 -311 -300 -512 -442 -333 -236 -739 -443 -1120 -571 -96 -32 -231 -69
-233 -63 -1 1 -9 36 -20 77 -10 41 -20 80 -22 85 -2 6 18 17 44 24 468 132
931 361 1318 650 118 88 172 133 318 264 60 53 112 97 115 97 4 0 30 -23 59
-52z m-5787 18 c0 -2 -8 -10 -17 -17 -16 -13 -17 -12 -4 4 13 16 21 21 21 13z
m-736 -43 c11 -16 67 -81 124 -145 l103 -118 -33 -28 c-18 -16 -109 -93 -203
-171 -189 -158 -632 -530 -795 -666 -58 -49 -215 -181 -350 -294 -584 -489
-540 -450 -540 -485 0 -77 59 -77 149 2 36 32 176 150 311 263 628 525 745
623 750 629 3 3 43 37 90 75 47 38 87 72 90 75 17 18 62 40 72 34 6 -4 8 -3 5
3 -4 5 7 23 23 38 17 16 30 27 30 24 0 -3 28 22 63 54 238 223 -28 -48 -1075
-1097 -659 -660 -1200 -1197 -1203 -1195 -2 3 3 16 13 30 9 13 17 29 18 36 1
7 25 65 53 130 72 168 126 325 167 482 41 155 60 189 282 495 385 529 757 929
1357 1457 181 160 465 398 474 399 2 0 13 -12 25 -27z m7362 -66 c226 -188
284 -238 489 -423 233 -209 562 -533 706 -694 307 -345 684 -855 903 -1223 52
-88 58 -103 52 -137 -8 -50 -74 -254 -89 -274 -10 -14 -197 169 -1257 1230
-685 686 -1239 1243 -1231 1239 7 -4 75 -60 151 -124 76 -64 168 -141 205
-171 68 -55 249 -206 395 -330 42 -36 153 -129 246 -207 93 -78 362 -304 598
-503 407 -342 431 -361 465 -358 34 3 36 5 39 44 l3 41 -213 180 c-117 99
-247 209 -289 244 -601 504 -709 595 -1074 903 -282 237 -418 352 -437 367
-19 15 -15 20 99 152 65 75 120 137 123 137 3 -1 55 -42 116 -93z m-6666 80
c0 -2 -10 -12 -22 -23 l-23 -19 19 23 c18 21 26 27 26 19z m-40 -57 c0 -5 -4
-10 -9 -10 -6 0 -13 5 -16 10 -3 6 1 10 9 10 9 0 16 -4 16 -10z m-20 -175
c207 -196 531 -435 797 -588 163 -93 528 -267 562 -267 5 0 13 -5 17 -12 5 -8
-23 -10 -112 -4 -65 3 -128 7 -139 9 -18 2 -20 -3 -17 -51 l4 -53 -59 26
c-170 76 -437 227 -638 364 -278 188 -635 488 -635 533 0 8 27 41 60 72 69 66
57 69 160 -29z m6112 18 c32 -32 58 -62 58 -67 0 -24 -278 -268 -466 -409
-261 -196 -606 -398 -909 -532 -165 -73 -533 -205 -580 -207 -11 -1 -25 -6
-32 -11 -16 -12 -33 0 -33 23 0 11 -6 39 -14 62 -8 24 -17 55 -20 69 -7 31
-22 24 209 98 571 184 1082 476 1540 882 61 53 121 109 134 123 14 14 31 26
40 26 8 0 41 -26 73 -57z m-6502 -235 c-39 -46 -87 -102 -107 -125 -20 -23
-40 -40 -44 -37 -5 3 -6 -1 -4 -8 3 -8 -10 -29 -29 -47 -20 -19 -33 -37 -31
-41 2 -3 -42 -60 -98 -126 -57 -65 -185 -218 -286 -339 -238 -285 -216 -263
-239 -242 -19 17 -19 16 -25 -28 -5 -51 -53 -121 -80 -119 -9 1 -17 -10 -20
-25 -3 -14 -61 -92 -129 -172 -68 -80 -164 -195 -215 -255 -50 -60 -146 -174
-212 -253 -89 -105 -121 -150 -121 -170 0 -36 17 -51 56 -51 35 0 11 -25 348
374 127 151 167 193 163 170 -3 -16 -9 -71 -13 -122 -3 -50 -9 -94 -13 -96 -3
-2 -17 20 -31 50 -14 29 -28 54 -32 54 -5 0 -8 -15 -8 -34 0 -36 -25 -190 -40
-246 -8 -30 -32 -51 -152 -141 -283 -209 -530 -370 -853 -556 -179 -102 -474
-259 -567 -300 l-27 -12 24 51 c13 27 35 62 49 77 27 28 35 48 14 34 -7 -4 -4
6 6 22 22 33 2022 2035 2034 2035 4 0 18 16 31 35 13 19 27 35 31 35 5 0 52
46 107 101 54 56 111 114 127 128 16 14 39 37 50 50 12 13 27 29 34 35 7 6 18
17 25 24 30 33 60 57 70 57 7 0 12 5 12 11 0 11 252 284 262 284 3 0 -27 -37
-67 -82z m2682 18 c239 -48 382 -60 683 -59 304 1 467 16 726 70 70 14 134 23
143 20 9 -4 16 -17 16 -31 0 -14 4 -27 9 -30 4 -3 11 -23 15 -43 3 -21 9 -48
12 -60 7 -25 3 -26 -182 -67 -480 -106 -1028 -106 -1501 -1 -123 28 -143 34
-143 44 1 9 27 109 40 154 10 34 14 38 35 33 13 -3 79 -17 147 -30z m4076
-208 c228 -274 722 -864 907 -1084 83 -98 233 -278 334 -399 101 -121 191
-225 199 -231 15 -11 59 -7 78 7 6 5 8 23 5 44 -4 25 -37 72 -117 167 -61 73
-207 248 -325 388 -226 270 -587 702 -716 859 -43 51 -106 126 -140 166 -35
41 -63 77 -63 81 0 5 504 -495 1119 -1110 1088 -1087 1119 -1120 1108 -1145
-13 -31 -68 -115 -101 -155 l-24 -28 -133 78 c-432 251 -853 548 -1224 862
-373 316 -861 826 -1268 1326 -91 112 -107 136 -89 136 4 0 68 54 142 120 74
65 136 119 137 120 1 0 77 -91 171 -202z m-6468 72 c69 -60 128 -110 133 -110
18 0 3 -26 -60 -103 -173 -212 -396 -467 -600 -684 l-125 -133 -40 48 c-21 26
-65 89 -96 139 l-57 93 -8 -38 c-19 -88 -60 -248 -67 -255 -4 -5 -31 13 -59
40 l-53 48 179 211 c98 116 299 355 448 532 148 177 272 322 275 322 3 0 61
-49 130 -110z m4037 -152 c10 -14 37 -128 31 -132 -8 -6 -90 -27 -178 -45
-395 -84 -785 -109 -1149 -75 -232 21 -610 89 -634 113 -8 8 15 126 27 138 4
4 32 1 64 -5 310 -68 539 -92 871 -92 320 0 577 28 841 91 91 21 115 23 127 7z
m-3755 -75 c19 -16 80 -59 136 -97 56 -39 102 -74 102 -79 0 -8 -66 -97 -585
-784 -104 -138 -345 -457 -535 -709 -190 -251 -351 -464 -357 -473 -26 -32 89
284 176 488 144 334 193 498 207 684 l7 85 102 109 c163 174 385 424 548 620
84 101 155 183 158 183 3 0 22 -12 41 -27z m5765 -130 c188 -228 456 -528 679
-760 107 -110 194 -204 194 -206 0 -3 55 -92 123 -199 300 -469 468 -810 662
-1334 34 -94 88 -251 119 -350 32 -98 61 -192 67 -208 5 -16 9 -41 9 -55 0
-15 5 -32 11 -38 17 -17 95 -311 84 -321 -8 -8 -453 37 -582 59 l-62 11 -137
236 c-76 131 -156 269 -179 307 -23 39 -125 214 -227 390 -102 176 -391 676
-643 1110 -252 435 -483 833 -513 885 -30 52 -86 148 -123 212 -67 116 -68
118 -46 129 19 11 24 8 42 -16 11 -15 146 -197 301 -404 154 -207 433 -581
620 -831 187 -250 416 -558 509 -683 94 -126 253 -339 355 -475 l185 -247 45
0 c44 0 45 1 48 35 2 31 -15 58 -155 245 -220 293 -1052 1410 -1680 2252 -79
106 -143 196 -143 201 0 5 17 18 38 30 20 12 87 58 147 101 61 44 113 80 116
80 3 1 64 -70 136 -156z m-1935 -70 c13 -35 38 -147 33 -152 -8 -7 -203 -52
-337 -76 -490 -90 -1012 -90 -1483 0 -239 45 -305 61 -305 73 1 4 8 34 16 67
9 33 18 70 21 83 3 12 9 22 14 22 5 0 69 -13 143 -29 503 -110 1165 -113 1680
-6 67 14 135 29 151 34 47 15 55 13 67 -16z m-3432 -68 c0 -2 -109 -191 -241
-421 -133 -231 -365 -635 -517 -899 -255 -446 -525 -916 -747 -1300 -51 -88
-199 -347 -330 -575 -131 -228 -271 -472 -311 -542 -41 -69 -74 -137 -74 -150
0 -18 -2 -20 -10 -8 -5 8 -10 28 -10 44 0 23 -3 27 -17 21 -127 -50 -403 -119
-418 -104 -6 7 77 424 120 599 9 36 25 103 37 150 12 47 26 90 32 96 6 7 38
19 71 29 266 74 442 282 615 726 42 108 7 58 510 724 91 121 258 342 370 490
112 149 272 360 355 470 83 110 233 309 334 442 l183 242 24 -16 c13 -8 24
-17 24 -18z m136 -80 c6 -14 -35 -112 -431 -1030 -114 -264 -224 -520 -245
-570 -21 -49 -104 -243 -185 -430 -80 -187 -194 -450 -252 -585 -59 -135 -122
-281 -141 -325 -24 -55 -36 -96 -36 -130 l-1 -50 43 0 43 0 35 80 c19 44 103
238 185 430 83 193 180 418 216 500 35 83 70 164 77 180 25 58 56 120 51 100
-2 -11 -20 -81 -40 -155 -19 -74 -35 -136 -35 -137 0 -1 60 27 133 62 155 74
437 178 437 162 0 -9 -118 -221 -195 -352 -190 -321 -461 -689 -735 -995 -42
-47 -96 -107 -120 -135 -24 -27 -81 -88 -126 -135 -46 -47 -107 -111 -136
-143 -51 -56 -56 -59 -134 -76 -45 -10 -168 -48 -275 -84 -267 -90 -368 -104
-439 -61 -24 14 -24 15 -2 11 31 -7 53 16 104 108 39 70 299 524 728 1270 73
127 256 446 408 710 382 666 990 1723 1014 1763 21 34 45 42 54 17z m4654
-176 c563 -973 1213 -2094 1335 -2304 29 -49 91 -155 138 -235 178 -305 238
-412 234 -417 -8 -7 -125 45 -201 89 -37 22 -103 69 -146 103 -74 59 -79 62
-94 46 -14 -15 -15 -39 -10 -167 10 -226 -14 -407 -62 -469 -15 -19 -18 -17
-89 57 -434 457 -751 874 -1003 1318 -158 278 -196 361 -227 490 -15 63 -33
135 -41 160 -7 25 -36 124 -64 220 -62 212 -230 714 -301 900 -28 74 -52 143
-53 152 -1 14 34 34 144 84 80 36 152 68 160 70 11 3 28 -26 64 -113 27 -65
96 -228 153 -363 58 -135 127 -299 155 -365 28 -66 76 -181 108 -255 31 -74
74 -175 95 -225 20 -49 43 -103 50 -120 32 -72 111 -258 147 -345 78 -185 419
-993 450 -1065 32 -73 36 -76 82 -73 72 5 69 16 -140 511 -103 243 -201 476
-219 517 -18 41 -56 131 -85 200 -29 69 -77 181 -106 250 -29 69 -71 170 -94
225 -23 55 -48 114 -55 130 -20 45 -144 338 -265 625 -29 69 -82 193 -118 275
-35 83 -73 174 -84 203 -19 52 -19 54 -1 67 10 8 22 13 27 12 5 -2 57 -86 116
-188z m-4307 9 l47 -21 0 -97 c0 -64 -6 -116 -17 -149 -18 -56 -27 -63 -38
-28 -5 15 -10 -2 -15 -58 -7 -75 -64 -275 -79 -275 -3 0 -24 41 -46 91 -22 50
-42 92 -45 94 -3 2 -4 -80 -2 -181 2 -101 0 -184 -5 -184 -5 0 -37 54 -71 119
-34 66 -63 117 -66 113 -8 -13 -34 -173 -47 -284 -6 -59 -15 -105 -19 -103 -4
3 -18 32 -30 65 -12 33 -26 63 -30 65 -13 8 -49 -163 -62 -287 -9 -88 -13
-106 -21 -87 -5 13 -24 64 -42 113 l-32 90 -16 -70 c-9 -38 -21 -98 -28 -134
-6 -36 -15 -70 -18 -77 -4 -7 -24 21 -48 65 l-42 77 170 395 c154 358 194 452
314 730 21 47 41 95 46 107 8 23 9 22 101 -23 51 -25 114 -55 141 -66z m690
85 c16 -3 31 -12 34 -19 5 -14 -34 -164 -47 -177 -10 -12 -91 14 -97 30 -3 8
5 52 17 99 21 77 25 85 44 80 12 -4 34 -9 49 -13z m-3913 -7 c0 -2 -42 -53
-92 -113 -92 -109 -237 -295 -364 -468 -36 -49 -64 -81 -60 -70 5 21 34 279
38 350 l3 40 128 68 c70 37 176 97 235 132 114 68 112 67 112 61z m6270 -125
c11 -45 20 -86 20 -90 0 -17 -339 -89 -570 -120 -527 -73 -1063 -48 -1605 75
-38 9 -82 20 -97 26 -26 10 -26 11 -14 47 8 20 17 55 20 78 12 69 22 76 81 59
97 -28 392 -79 560 -96 173 -18 567 -23 760 -11 247 16 529 59 755 114 30 8
59 11 63 7 4 -4 17 -44 27 -89z m-2680 39 c0 -5 -4 -10 -9 -10 -14 0 -25 -114
-12 -118 7 -2 11 -33 11 -80 0 -73 1 -78 34 -112 32 -34 34 -40 45 -155 13
-127 44 -261 70 -305 5 -8 20 -40 35 -70 14 -30 26 -50 26 -45 1 16 29 -39 30
-56 0 -27 225 -236 318 -296 48 -31 89 -60 92 -63 3 -4 28 -16 55 -29 28 -12
82 -37 120 -56 l70 -34 -72 0 c-40 -1 -73 3 -73 8 0 13 -98 25 -113 13 -16
-12 -357 -3 -357 10 0 6 -15 7 -37 3 -52 -10 -323 -13 -323 -3 0 11 -114 10
-126 -1 -10 -10 -262 -33 -386 -36 -48 -1 -90 -8 -110 -18 -18 -8 -87 -28
-153 -44 -66 -15 -127 -29 -135 -32 -11 -2 -10 2 4 18 11 11 24 21 31 21 6 0
26 16 45 35 28 29 41 35 75 35 36 0 47 6 92 53 51 51 51 53 58 130 5 49 12 77
19 77 23 0 126 105 126 128 0 19 5 22 37 22 32 0 46 8 95 57 32 32 58 62 58
67 0 6 27 38 60 71 l59 60 24 118 c19 96 28 122 51 146 32 33 45 108 46 257 0
45 3 115 6 157 l7 76 36 4 c20 2 44 4 54 5 9 1 17 -2 17 -8z m6860 -65 c196
-111 590 -295 764 -356 l38 -14 -6 -60 c-3 -33 -17 -103 -31 -155 -36 -135
-127 -392 -135 -383 -4 4 -42 64 -85 133 -166 264 -415 610 -582 807 -76 90
-74 91 37 28z m-3572 -146 c47 -124 262 -749 279 -814 6 -22 20 -69 31 -105
240 -789 352 -1542 352 -2378 l0 -203 -132 3 -132 3 -12 50 c-6 28 -22 86 -34
130 -38 140 -64 235 -110 413 -12 42 -27 100 -35 127 -8 28 -23 84 -34 125
-41 158 -62 237 -76 285 -7 28 -23 84 -34 125 -10 41 -28 109 -39 150 -11 41
-30 111 -42 155 -32 116 -46 171 -69 255 -41 158 -62 237 -76 285 -7 28 -23
84 -34 125 -10 41 -28 109 -39 150 -11 41 -30 111 -42 155 -22 82 -33 123 -68
255 -11 41 -30 111 -42 155 -12 44 -28 103 -35 130 -7 28 -23 85 -34 128 -11
42 -30 112 -41 155 -27 101 -26 97 -15 100 5 2 23 -36 40 -85 17 -48 33 -92
36 -98 4 -5 12 -28 19 -50 6 -22 19 -55 27 -74 8 -18 16 -39 18 -45 1 -6 7
-22 12 -36 6 -14 43 -115 82 -225 40 -110 78 -216 86 -235 7 -19 109 -298 225
-620 116 -322 248 -686 294 -810 l82 -225 44 0 c45 0 45 0 48 37 3 32 -115
375 -268 783 -10 28 -87 239 -170 470 -84 231 -161 443 -171 470 -10 28 -37
100 -58 160 -22 61 -81 222 -131 358 -49 137 -90 254 -90 260 0 12 316 127
335 123 6 -2 30 -54 53 -117z m-2703 -94 c28 -7 92 -19 144 -26 51 -7 95 -18
97 -24 6 -16 -80 -509 -114 -653 l-17 -72 -67 45 c-97 65 -172 144 -212 223
l-35 69 19 99 c52 283 60 330 60 347 0 20 21 18 125 -8z m2074 -92 c12 -65 26
-140 31 -168 5 -27 16 -90 24 -140 9 -49 34 -193 56 -320 23 -126 47 -266 55
-310 25 -146 54 -308 75 -430 12 -66 27 -154 34 -195 84 -487 140 -787 149
-798 6 -8 25 -12 46 -10 35 3 36 4 39 49 2 25 -11 124 -28 220 -17 96 -40 226
-51 289 -11 63 -26 151 -34 195 -8 44 -21 118 -29 165 -8 47 -35 202 -61 345
-68 380 -74 416 -100 575 -13 80 -34 199 -45 265 -12 66 -24 136 -26 155 -4
33 -3 33 7 10 11 -25 41 -134 60 -220 6 -25 14 -54 19 -65 5 -11 14 -45 20
-75 6 -30 15 -64 20 -75 5 -11 15 -49 24 -85 8 -36 22 -90 30 -120 8 -30 24
-86 34 -125 10 -38 21 -77 25 -85 3 -8 13 -44 21 -80 16 -70 32 -131 66 -255
12 -44 30 -111 41 -150 10 -38 35 -131 55 -205 20 -74 45 -169 56 -210 60
-228 66 -252 108 -405 12 -44 31 -114 42 -155 21 -81 34 -132 68 -255 21 -75
35 -128 80 -300 10 -38 28 -104 39 -145 11 -41 25 -95 31 -120 6 -25 16 -54
22 -64 10 -19 6 -19 -97 -13 -60 4 -127 7 -151 7 l-43 0 -62 113 c-302 546
-553 1125 -699 1612 -74 248 -101 349 -165 625 -87 371 -202 988 -187 1001 4
3 54 14 112 23 58 10 130 23 160 31 111 27 105 31 129 -102z m-1559 17 c46 -6
110 -10 142 -10 l58 0 0 -31 c0 -17 -7 -78 -15 -137 -17 -119 -95 -748 -95
-763 0 -7 -371 171 -388 186 -1 1 11 69 27 151 28 141 58 306 96 526 l17 98
36 -5 c21 -3 75 -10 122 -15z m1072 -155 c55 -345 173 -904 253 -1200 20 -74
26 -132 36 -335 12 -258 7 -696 -11 -880 -23 -241 -94 -707 -109 -723 -9 -9
-201 2 -201 12 0 3 -7 62 -15 131 -32 263 -56 470 -70 590 -14 128 -67 578
-85 730 -12 95 -43 359 -65 550 -8 69 -24 199 -34 290 -11 91 -34 284 -50 430
-17 146 -38 316 -46 378 -8 63 -15 127 -15 143 l0 29 73 1 c39 0 117 7 172 14
153 20 135 36 167 -160z m-684 -1483 c1 -886 -1 -1612 -5 -1612 -5 0 -57 -5
-118 -10 -150 -15 -237 -33 -395 -85 -228 -74 -238 -76 -244 -57 -14 49 -59
290 -85 457 -59 376 -66 475 -66 910 l0 400 36 115 c20 63 45 150 55 193 l18
77 40 0 c57 0 420 -21 424 -24 1 -2 -4 -50 -12 -107 -8 -57 -27 -201 -41 -319
-14 -118 -32 -267 -40 -330 -8 -63 -33 -263 -55 -445 -22 -181 -47 -382 -56
-445 -9 -63 -17 -153 -18 -200 l-1 -84 38 -7 c22 -3 41 -2 46 5 10 13 20 91
101 751 33 270 67 544 76 610 8 66 27 221 43 345 l27 225 101 3 101 3 -10 42
c-13 61 -51 119 -108 169 l-51 44 16 130 c20 169 93 767 101 822 5 43 6 43 42
40 l37 -3 3 -1613z m162 1611 c0 -5 9 -82 20 -173 11 -91 29 -241 40 -335 11
-93 26 -226 34 -295 8 -69 24 -201 35 -295 11 -93 29 -249 41 -345 19 -164 42
-361 75 -645 8 -66 23 -196 35 -290 11 -93 29 -246 40 -340 20 -173 43 -373
56 -479 l7 -59 -64 7 c-35 3 -133 11 -218 16 -85 6 -156 11 -158 13 -2 2 -5
3050 -3 3220 0 4 14 7 30 7 17 0 30 -3 30 -7z m1137 -45 c-3 -7 -5 -2 -5 12 0
14 2 19 5 13 2 -7 2 -19 0 -25z m-5228 -50 c61 -1 111 -2 111 -2 0 -1 -9 -29
-19 -64 -11 -34 -15 -60 -10 -56 15 9 -59 -190 -154 -411 -55 -130 -134 -346
-207 -565 -111 -334 -172 -495 -242 -635 -42 -82 -133 -221 -166 -252 -25 -24
-120 -83 -133 -83 -3 0 -2 26 2 58 4 31 13 107 19 167 20 182 54 292 194 620
93 216 154 368 186 462 44 126 44 127 31 119 -4 -3 -2 20 5 51 13 56 62 123
91 123 7 0 17 8 22 19 13 24 30 191 18 184 -4 -2 -5 19 -1 49 5 40 15 62 40
91 19 20 34 47 34 60 0 12 5 39 11 60 10 38 11 38 34 23 17 -11 54 -16 134
-18z m2748 -40 c-3 -8 -6 -5 -6 6 -1 11 2 17 5 13 3 -3 4 -12 1 -19z m5633
-510 c246 -199 603 -451 868 -613 69 -42 75 -50 102 -131 l17 -54 -34 -46
c-43 -56 -105 -102 -149 -110 l-34 -6 48 -43 c33 -30 59 -66 80 -112 50 -111
51 -118 5 -162 -101 -95 -230 -120 -389 -72 -57 17 -60 19 -76 67 -133 380
-200 555 -292 761 -73 165 -219 450 -290 567 -36 60 -66 114 -66 119 0 5 24
-11 53 -35 28 -25 99 -83 157 -130z m-7094 -218 l-13 -115 -18 40 c-9 22 -19
43 -21 46 -1 3 3 16 9 30 7 13 21 46 31 72 10 27 20 47 21 45 2 -2 -2 -55 -9
-118z m-1965 -28 c-11 -26 -64 -154 -119 -283 -173 -409 -190 -462 -216 -718
-9 -82 -19 -137 -27 -141 -28 -18 -115 -20 -174 -5 -204 54 -305 230 -270 470
8 50 24 119 37 154 l23 63 170 107 c205 129 378 245 500 335 49 36 91 66 92
66 1 0 -6 -22 -16 -48z m3024 -334 c-3 -13 -13 -48 -20 -78 -29 -117 -47 -186
-53 -200 -7 -18 -38 -134 -56 -210 -17 -68 -47 -180 -54 -200 -7 -20 -80 -292
-96 -360 -22 -89 -48 -184 -56 -205 -5 -11 -11 -32 -14 -47 -5 -19 -13 -28
-26 -28 -12 0 -76 -11 -143 -25 -67 -13 -146 -27 -176 -31 l-54 -7 6 119 c12
208 53 549 103 834 27 160 75 385 83 393 5 5 26 12 47 17 63 14 296 42 301 36
3 -3 -7 -38 -22 -78 -14 -40 -41 -116 -60 -168 -35 -98 -39 -112 -169 -467
-53 -143 -76 -222 -74 -245 3 -31 5 -33 45 -36 34 -3 44 1 53 18 10 18 118
313 170 465 10 28 53 145 95 260 42 116 82 222 87 238 9 23 15 27 50 27 37 0
40 -2 33 -22z m210 0 c-2 -13 -16 -88 -30 -168 -14 -80 -44 -246 -66 -370 -22
-124 -49 -274 -59 -335 -11 -60 -26 -148 -35 -195 -25 -135 -29 -198 -15 -215
16 -19 64 -20 79 -1 10 12 27 93 67 324 30 176 44 256 89 507 26 143 51 285
56 315 5 30 14 79 20 108 l10 52 78 0 c43 0 119 -3 170 -7 l92 -6 -7 -31 c-13
-59 -93 -331 -138 -466 -174 -529 -462 -1158 -753 -1642 l-34 -58 -57 36 c-31
20 -72 51 -91 69 -37 37 -38 23 9 200 12 44 28 107 36 140 8 33 19 69 24 80 5
11 16 49 24 85 24 103 37 153 46 175 5 11 16 49 24 85 20 85 50 202 106 405
12 44 31 114 42 155 11 41 29 109 39 150 11 41 27 98 34 125 23 80 56 205 71
270 8 33 19 69 24 80 5 11 12 36 15 55 4 19 11 50 16 68 10 31 12 32 65 32 51
0 54 -1 49 -22z m6940 -180 c33 -15 32 -30 -2 -26 -17 2 -29 10 -31 21 -4 20
-1 21 33 5z m-11060 -50 c-21 -93 -25 -123 -25 -203 0 -218 80 -365 238 -442
75 -36 80 -37 196 -38 l118 0 -6 -65 c-11 -110 -10 -107 -86 -124 -91 -21
-161 -20 -241 3 -147 42 -248 140 -302 294 -18 51 -22 83 -21 187 0 110 4 138
31 230 42 140 49 157 70 169 27 16 34 13 28 -11z m3184 -83 c-41 -178 -90
-572 -125 -1012 l-7 -81 -41 -6 c-108 -16 -288 -26 -454 -26 l-184 0 61 73
c255 302 478 619 667 944 48 84 89 151 90 150 2 -1 -1 -20 -7 -42z m-3379 -12
c0 -5 -7 -42 -17 -83 -23 -105 -23 -332 0 -420 47 -176 170 -312 328 -361 74
-23 215 -33 297 -21 55 8 62 7 62 -8 0 -13 7 -16 30 -12 21 3 30 0 30 -9 -1
-28 -56 -239 -66 -248 -15 -14 -122 -48 -206 -65 -162 -33 -304 -15 -440 57
-128 67 -212 172 -265 332 -25 73 -27 93 -27 240 0 167 8 214 66 395 37 115
50 133 125 173 70 38 83 42 83 30z m8195 -178 c177 -308 454 -681 753 -1013
53 -59 105 -117 115 -129 17 -19 18 -27 7 -80 -14 -67 -68 -183 -108 -231 -24
-28 -39 -35 -136 -57 -172 -38 -234 -42 -287 -15 -100 50 -225 157 -271 230
-12 20 -17 69 -21 230 -9 319 -38 642 -92 1015 -9 61 -18 121 -21 135 -8 34
-5 30 61 -85z m-8531 -60 c-82 -305 -62 -610 52 -805 18 -31 40 -63 49 -70 8
-7 15 -16 15 -21 0 -4 -21 -43 -46 -87 l-47 -79 -86 -7 c-115 -8 -209 -32
-484 -122 -207 -68 -373 -113 -418 -114 -12 0 -25 26 -48 98 -17 53 -34 112
-37 130 -4 18 -11 35 -15 38 -15 9 -10 54 10 82 10 15 48 72 83 127 36 55 94
145 130 200 l64 100 100 23 c54 12 123 33 152 47 108 50 223 187 321 382 l41
83 93 43 c50 24 93 44 94 43 1 -1 -10 -41 -23 -91z m7145 -133 c14 -42 33 -97
42 -122 165 -418 240 -586 400 -899 l120 -234 -11 -54 -12 -54 -91 7 c-51 4
-206 8 -345 8 l-254 1 7 40 c81 500 105 758 105 1120 0 146 3 265 8 265 4 0
18 -35 31 -78z m-2143 -214 c11 -412 52 -775 130 -1157 14 -68 23 -125 21
-127 -8 -8 -248 -53 -342 -64 -55 -6 -154 -10 -220 -8 l-120 3 -32 95 c-18 52
-32 106 -33 120 0 14 25 71 55 125 163 293 392 793 510 1118 10 26 20 45 22
43 3 -3 7 -69 9 -148z m6478 -16 l23 -122 -45 -20 c-100 -44 -246 -46 -377 -4
-63 21 -63 21 -80 80 -7 27 -18 63 -23 79 l-9 31 146 -1 c129 0 153 3 206 23
33 13 76 36 95 52 21 17 36 24 38 17 1 -7 13 -67 26 -135z m-12460 -279 c-20
-32 -43 -65 -50 -74 -8 -8 -14 -20 -14 -26 0 -6 -30 -56 -66 -112 -76 -117
-77 -122 -29 -276 33 -108 35 -121 15 -116 -8 2 -37 8 -63 14 -48 10 -49 11
-43 40 l6 31 -22 -21 c-21 -19 -30 -20 -91 -14 -67 7 -68 7 -125 -31 -31 -21
-62 -38 -69 -38 -28 0 -23 25 13 63 l39 42 -40 -37 c-43 -40 -55 -46 -55 -26
0 10 618 638 628 638 1 0 -14 -26 -34 -57z m12497 -32 c-27 -51 -91 -107 -164
-142 -62 -29 -197 -64 -219 -57 -10 4 -81 248 -74 255 1 2 29 -2 62 -8 78 -14
307 -7 359 12 37 13 41 13 47 -4 5 -11 0 -33 -11 -56z m-12821 -226 l-285
-285 -3 51 c-5 77 31 140 131 236 46 43 121 104 168 135 86 58 246 148 264
148 5 0 -118 -128 -275 -285z m5336 -72 c-8 -26 -20 -66 -25 -88 -16 -62 -49
-185 -65 -240 l-14 -50 -1 75 c-1 94 18 171 69 279 43 90 62 103 36 24z
m-3803 -29 c9 -9 -36 -74 -51 -74 -9 0 -5 13 10 40 23 40 29 45 41 34z m164
-77 c21 -12 20 -15 -69 -169 -79 -139 -92 -156 -107 -146 -47 29 -45 40 40
187 83 145 91 153 136 128z m583 9 c0 -3 -49 -89 -108 -193 -64 -109 -116
-189 -126 -191 -27 -6 -86 61 -86 97 0 43 117 249 145 255 11 3 47 11 80 19
65 15 95 19 95 13z m-347 -43 c2 -5 -30 -66 -72 -138 -74 -125 -77 -130 -121
-142 -25 -7 -48 -12 -52 -11 -5 2 11 37 35 78 24 41 63 108 86 148 41 70 43
72 81 72 21 0 41 -3 43 -7z m2018 -70 c-5 -10 -22 -29 -38 -44 -59 -53 -66
-52 -18 3 49 57 75 75 56 41z m6929 -85 c0 -12 -109 -82 -117 -75 -3 4 -1 12
5 19 5 7 15 33 22 58 19 77 18 76 55 39 19 -19 35 -37 35 -41z m-878 -215 l28
-21 -33 -5 c-36 -5 -68 17 -93 65 -29 55 -17 65 29 22 23 -23 54 -50 69 -61z
m-4355 -168 c6 -19 10 -35 8 -35 -2 0 -15 4 -29 10 -28 10 -33 29 -14 48 18
18 24 15 35 -23z"/>
<path d="M12150 7821 c0 -6 4 -13 10 -16 6 -3 7 1 4 9 -7 18 -14 21 -14 7z"/>
<path d="M12020 7825 c13 -14 26 -25 28 -25 3 0 -5 11 -18 25 -13 14 -26 25
-28 25 -3 0 5 -11 18 -25z"/>
<path d="M12095 7750 c10 -11 20 -20 23 -20 3 0 -3 9 -13 20 -10 11 -20 20
-23 20 -3 0 3 -9 13 -20z"/>
<path d="M8255 5800 c-27 -27 -46 -53 -42 -57 4 -4 33 19 65 50 33 33 50 57
42 57 -9 0 -38 -22 -65 -50z"/>
<path d="M8040 5585 c-30 -30 -52 -56 -50 -59 5 -4 120 101 120 110 0 12 -21
-3 -70 -51z"/>
<path d="M6957 4501 c-210 -209 -380 -382 -377 -385 3 -3 181 168 394 379 213
212 383 385 377 385 -6 0 -183 -171 -394 -379z"/>
<path d="M6529 4074 c-13 -15 -18 -25 -10 -22 13 4 49 48 39 48 -2 0 -15 -12
-29 -26z"/>
<path d="M6449 3994 c-23 -25 -23 -26 -2 -15 23 12 38 29 31 37 -3 2 -15 -8
-29 -22z"/>
<path d="M6359 3903 c-13 -16 -12 -17 4 -4 16 13 21 21 13 21 -2 0 -10 -8 -17
-17z"/>
<path d="M6293 3838 c-15 -20 -25 -38 -20 -38 3 0 12 11 21 25 17 26 16 35 -1
13z"/>
<path d="M6213 3758 c-20 -26 -26 -41 -15 -34 12 7 36 46 29 46 -3 0 -9 -6
-14 -12z"/>
<path d="M6114 3659 c-22 -24 -24 -29 -8 -21 24 13 49 40 42 47 -2 3 -18 -9
-34 -26z"/>
<path d="M6044 3589 c-21 -23 -23 -29 -9 -21 25 13 62 52 48 52 -5 0 -22 -14
-39 -31z"/>
<path d="M5757 3300 c-138 -137 -249 -252 -246 -254 2 -3 61 51 130 120 69 68
125 124 124 124 -1 0 57 59 128 130 72 72 127 130 122 130 -4 0 -121 -112
-258 -250z"/>
<path d="M5460 3005 c-19 -19 -29 -35 -24 -35 11 0 45 34 58 58 12 21 1 14
-34 -23z"/>
<path d="M5337 2881 c-42 -44 -77 -83 -77 -88 0 -4 37 29 82 74 45 45 80 85
77 87 -3 3 -40 -30 -82 -73z"/>
<path d="M8101 5525 c-30 -30 -52 -57 -50 -60 3 -2 32 22 64 55 33 33 55 60
50 60 -6 0 -34 -25 -64 -55z"/>
<path d="M7397 4826 c-131 -132 -357 -360 -502 -506 -145 -145 -262 -267 -259
-269 6 -6 965 950 995 992 46 62 -8 12 -234 -217z"/>
<path d="M6608 4029 c-10 -5 -23 -20 -29 -32 -10 -18 -6 -17 20 7 39 37 42 45
9 25z"/>
<path d="M6523 3948 c-24 -32 -24 -41 0 -19 15 14 27 26 27 28 0 8 -19 2 -27
-9z"/>
<path d="M6394 3817 c-102 -104 -102 -117 0 -17 47 46 86 86 86 87 0 12 -25
-9 -86 -70z"/>
<path d="M6278 3699 c-10 -5 -23 -20 -29 -32 -10 -18 -6 -17 20 7 39 37 42 45
9 25z"/>
<path d="M6188 3613 c-30 -36 -30 -47 0 -19 18 17 32 31 32 33 0 9 -19 1 -32
-14z"/>
<path d="M5680 3104 c-255 -255 -460 -464 -454 -464 12 0 929 918 923 924 -2
2 -213 -204 -469 -460z"/>
<path d="M5180 2605 c-13 -14 -21 -27 -18 -30 2 -3 17 9 33 25 16 17 24 30 19
30 -6 0 -21 -11 -34 -25z"/>
<path d="M4025 1443 l-18 -28 27 24 c28 26 31 31 17 31 -5 0 -17 -12 -26 -27z"/>
<path d="M3980 1397 c-8 -7 -31 -31 -50 -52 -28 -32 -24 -30 18 10 47 44 57
56 50 55 -2 0 -10 -6 -18 -13z"/>
<path d="M3862 1283 c-7 -2 -17 -14 -23 -26 -11 -21 -10 -20 15 2 14 14 26 26
26 28 0 3 0 3 -18 -4z"/>
<path d="M3792 1213 c-7 -2 -17 -14 -23 -26 -11 -21 -10 -20 15 2 14 14 26 26
26 28 0 3 0 3 -18 -4z"/>
<path d="M3712 1133 c-7 -2 -17 -14 -23 -26 -11 -21 -10 -20 15 2 14 14 26 26
26 28 0 3 0 3 -18 -4z"/>
<path d="M3710 1250 c-9 -6 -10 -10 -3 -10 6 0 15 5 18 10 8 12 4 12 -15 0z"/>
</g>
</svg>
