<?xml version="1.0" encoding="iso-8859-1"?>
<!-- Generator: Adobe Illustrator 19.0.0, SVG Export Plug-In . SVG Version: 6.00 Build 0)  -->
<svg xmlns="http://www.w3.org/2000/svg" xmlns:xlink="http://www.w3.org/1999/xlink" version="1.1" id="Capa_1" x="0px" y="0px" viewBox="0 0 499.813 499.813" style="enable-background:new 0 0 499.813 499.813;" xml:space="preserve" width="160px" height="160px">
<g>
	<g>
		<g>
			<path d="M231.623,57.906v64h36.571v-64c0-5.049,4.093-9.143,9.143-9.143h9.143L249.909,0l-36.571,48.763h9.143     C227.529,48.763,231.623,52.857,231.623,57.906z" fill="#4da83b"/>
			<path d="M88.284,127.072c1.714-1.715,4.04-2.679,6.464-2.679s4.75,0.964,6.464,2.679l45.259,45.255l25.857-25.857l-45.254-45.259     c-1.715-1.715-2.678-4.04-2.678-6.465c0.001-2.425,0.964-4.75,2.679-6.464l6.464-6.464l-60.335-8.616l8.616,60.335     L88.284,127.072z" fill="#4da83b"/>
			<path d="M121.909,231.621h-64c-5.049,0-9.143-4.093-9.143-9.143v-9.143L0.002,249.906l48.763,36.571v-9.143     c0-5.049,4.093-9.143,9.143-9.143h64V231.621z" fill="#4da83b"/>
			<path d="M172.328,353.344l-25.857-25.857l-45.259,45.254c-1.714,1.715-4.039,2.679-6.464,2.679c-2.425,0-4.75-0.964-6.464-2.679     l-6.464-6.464l-8.616,60.335l60.335-8.616l-6.464-6.464c-1.715-1.714-2.679-4.039-2.679-6.464c0-2.425,0.964-4.75,2.679-6.464     L172.328,353.344z" fill="#4da83b"/>
			<path d="M268.194,441.906v-64h-36.571v64c0,5.049-4.093,9.143-9.143,9.143h-9.143l36.571,48.763l36.571-48.763h-9.143     C272.288,451.049,268.194,446.956,268.194,441.906z" fill="#4da83b"/>
			<path d="M411.534,372.741c-3.626,3.433-9.303,3.433-12.929,0l-45.259-45.254l-25.857,25.857l45.254,45.259     c1.715,1.714,2.679,4.039,2.679,6.464c0,2.425-0.964,4.75-2.679,6.464l-6.464,6.464l60.335,8.616l-8.616-60.335L411.534,372.741z     " fill="#4da83b"/>
			<path d="M499.81,249.906l-48.759-36.571v9.143c0.001,2.425-0.962,4.751-2.677,6.466c-1.715,1.715-4.041,2.678-6.466,2.677h-64     v36.571h64c2.425-0.001,4.751,0.962,6.466,2.677c1.715,1.715,2.678,4.041,2.677,6.466v9.143L499.81,249.906z" fill="#4da83b"/>
			<path d="M327.489,146.469l25.857,25.857l45.259-45.255c1.714-1.715,4.039-2.679,6.464-2.679c2.425,0,4.75,0.964,6.464,2.679     l6.464,6.464l8.616-60.335l-60.335,8.616l6.464,6.464c1.715,1.714,2.679,4.04,2.679,6.464s-0.964,4.75-2.679,6.464     L327.489,146.469z" fill="#4da83b"/>
			<circle cx="249.909" cy="249.906" r="54.857" fill="#4da83b"/>
		</g>
	</g>
</g>
<g>
</g>
<g>
</g>
<g>
</g>
<g>
</g>
<g>
</g>
<g>
</g>
<g>
</g>
<g>
</g>
<g>
</g>
<g>
</g>
<g>
</g>
<g>
</g>
<g>
</g>
<g>
</g>
<g>
</g>
</svg>
